{"glyphs":{"0":{"ha":745,"x_min":69,"x_max":675,"o":"m 170 511 q 187 279 170 372 q 233 132 204 186 q 299 54 262 77 q 374 31 335 31 q 447 54 412 31 q 511 132 483 77 q 557 279 540 186 q 574 511 574 372 q 545 792 574 690 q 470 937 516 895 q 374 979 425 979 q 275 937 322 979 q 199 793 229 895 q 170 511 170 691 m 374 1028 q 520 977 452 1028 q 632 811 589 925 q 675 511 675 698 q 632 201 675 318 q 520 33 589 85 q 374 -20 452 -20 q 225 33 295 -20 q 113 201 156 85 q 69 511 69 318 q 113 811 69 698 q 225 977 156 925 q 374 1028 295 1028 z "},"1":{"ha":745,"x_min":117,"x_max":656,"o":"m 439 62 l 656 40 l 656 0 l 117 0 l 117 40 l 340 62 q 345 318 345 192 l 345 932 l 131 901 l 131 946 l 421 1023 l 441 1007 l 435 790 l 435 318 q 439 62 435 192 z "},"2":{"ha":745,"x_min":69,"x_max":679,"o":"m 150 90 l 679 90 l 679 0 l 74 0 l 74 71 q 207 229 142 152 q 322 366 272 305 q 443 520 397 453 q 511 646 490 588 q 533 761 533 703 q 481 919 533 857 q 335 981 429 981 q 232 962 284 981 l 193 857 q 126 783 171 783 q 92 794 106 783 q 69 821 78 804 q 126 936 84 890 q 229 1007 169 983 q 358 1031 290 1031 q 564 958 496 1031 q 632 766 632 886 q 606 645 632 705 q 518 508 579 585 q 353 315 457 430 q 269 221 325 283 q 150 90 214 160 z "},"3":{"ha":745,"x_min":66,"x_max":669,"o":"m 244 964 l 215 872 q 190 820 204 836 q 149 804 176 804 q 115 813 130 804 q 93 846 100 823 q 193 986 116 941 q 366 1031 271 1031 q 564 962 490 1031 q 637 783 637 892 q 583 629 637 696 q 427 533 528 562 q 609 441 548 513 q 669 265 669 370 q 628 116 669 180 q 514 16 587 52 q 347 -20 441 -20 q 165 27 240 -20 q 66 172 91 73 q 123 214 81 214 q 163 196 151 214 q 189 140 176 178 l 220 49 q 330 31 271 31 q 508 98 445 31 q 571 271 571 165 q 507 441 571 378 q 317 504 444 504 l 248 504 l 248 558 l 309 558 q 477 616 412 558 q 542 779 542 675 q 491 927 542 874 q 347 981 440 981 q 296 977 321 981 q 244 964 271 973 z "},"4":{"ha":745,"x_min":43,"x_max":722,"o":"m 110 397 l 464 397 l 464 907 l 110 397 m 722 397 l 722 328 l 554 328 l 554 0 l 464 0 l 464 328 l 43 328 l 43 385 l 493 1022 l 554 1022 l 554 397 l 722 397 z "},"5":{"ha":745,"x_min":57,"x_max":672,"o":"m 214 921 l 192 599 q 354 627 267 627 q 585 544 497 627 q 672 314 672 462 q 630 141 672 216 q 512 23 589 66 q 329 -20 435 -20 q 151 28 222 -20 q 57 172 81 77 q 114 211 71 211 q 153 197 139 211 q 178 143 166 182 l 210 49 q 321 31 260 31 q 508 104 443 31 q 574 302 574 177 q 507 497 574 432 q 329 562 439 562 q 247 556 288 562 q 170 534 207 549 l 134 541 l 165 1008 l 646 1008 l 646 921 l 214 921 z "},"6":{"ha":745,"x_min":68,"x_max":677,"o":"m 383 31 q 524 98 469 31 q 579 294 579 166 q 526 486 579 422 q 385 549 473 549 q 273 527 328 549 q 168 453 219 506 q 167 434 167 444 q 167 415 167 425 q 223 132 167 233 q 383 31 280 31 m 640 1031 l 647 996 q 310 820 427 948 q 171 503 193 691 q 407 612 272 612 q 603 531 529 612 q 677 311 677 450 q 639 135 677 209 q 533 21 600 61 q 379 -20 465 -20 q 212 32 282 -20 q 105 178 142 83 q 68 403 68 273 q 106 625 68 519 q 218 816 144 730 q 397 957 291 901 q 640 1031 504 1013 z "},"7":{"ha":745,"x_min":72,"x_max":668,"o":"m 72 1008 l 668 1008 l 668 951 l 304 0 l 218 0 l 205 12 l 600 921 l 72 921 l 72 1008 z "},"8":{"ha":745,"x_min":71,"x_max":672,"o":"m 372 29 q 524 84 468 29 q 581 228 581 139 q 528 362 581 302 q 338 484 476 422 q 204 375 247 432 q 161 237 161 319 q 218 86 161 144 q 372 29 275 29 m 191 803 q 233 671 191 734 q 395 553 276 609 q 509 662 475 605 q 543 799 543 720 q 524 888 543 846 q 466 955 504 930 q 372 981 428 981 q 283 959 324 981 q 216 898 241 937 q 191 803 191 858 m 435 534 q 616 406 561 475 q 672 239 672 337 q 633 104 672 162 q 526 13 594 45 q 371 -20 458 -20 q 152 46 233 -20 q 71 228 71 112 q 128 383 71 316 q 297 503 186 450 q 149 629 193 557 q 104 786 104 701 q 141 915 104 860 q 238 1000 177 970 q 374 1031 299 1031 q 509 1000 452 1031 q 597 917 566 970 q 628 798 628 865 q 587 661 628 730 q 435 534 545 592 z "},"9":{"ha":745,"x_min":55,"x_max":665,"o":"m 375 471 q 561 551 483 471 q 563 585 562 568 q 564 619 564 602 q 505 890 564 799 q 355 981 446 981 q 255 951 300 981 q 181 863 209 921 q 154 721 154 805 q 217 534 154 598 q 375 471 280 471 m 129 -24 l 117 17 q 420 208 315 85 q 554 493 526 330 q 347 408 473 408 q 198 445 264 408 q 94 550 132 482 q 56 713 55 618 q 96 880 56 808 q 203 991 135 951 q 359 1031 271 1031 q 521 982 452 1031 q 627 843 589 932 q 665 631 665 753 q 608 351 665 482 q 433 123 551 220 q 129 -24 314 25 z "}," ":{"ha":358,"x_min":0,"x_max":0,"o":""}," ":{"ha":358,"x_min":0,"x_max":0,"o":""},"!":{"ha":410,"x_min":129,"x_max":281,"o":"m 205 -18 q 151 5 173 -18 q 129 57 129 28 q 151 111 129 88 q 205 134 173 134 q 259 111 238 134 q 281 57 281 88 q 259 5 281 28 q 205 -18 238 -18 m 205 1035 q 250 1018 234 1035 q 267 962 267 1001 q 258 812 267 910 q 239 564 250 715 l 224 296 l 186 296 l 171 564 q 151 812 159 715 q 143 962 143 910 q 160 1018 143 1001 q 205 1035 176 1035 z "},"\"":{"ha":493,"x_min":69,"x_max":424,"o":"m 127 1112 q 184 1040 184 1112 q 180 970 184 1013 q 170 882 175 927 q 161 803 164 837 l 147 668 l 109 668 l 93 803 q 84 882 90 837 q 74 970 79 927 q 69 1040 69 1013 q 127 1112 69 1112 m 367 1112 q 424 1040 424 1112 q 419 970 424 1013 q 409 882 414 927 q 400 803 403 837 l 386 668 l 347 668 l 332 803 q 323 882 329 837 q 313 970 318 927 q 309 1040 309 1013 q 367 1112 309 1112 z "},"#":{"ha":781,"x_min":36,"x_max":745,"o":"m 497 375 l 533 616 l 281 616 l 244 375 l 497 375 m 745 616 l 582 616 l 546 375 l 696 375 l 696 286 l 532 286 l 489 0 l 440 0 l 484 286 l 231 286 l 187 0 l 138 0 l 180 286 l 36 286 l 36 375 l 195 375 l 231 616 l 86 616 l 86 705 l 243 705 l 285 978 l 335 978 l 293 705 l 547 705 l 589 978 l 637 978 l 596 705 l 745 705 l 745 616 z "},"$":{"ha":745,"x_min":78,"x_max":672,"o":"m 408 428 l 408 36 q 537 95 488 45 q 586 227 586 145 q 547 340 586 295 q 408 428 509 386 m 363 555 l 363 940 q 239 884 286 931 q 192 755 192 837 q 235 635 192 683 q 363 555 278 588 m 410 538 l 418 534 q 574 451 519 496 q 651 353 629 406 q 672 243 672 301 q 598 62 672 131 q 408 -18 524 -7 l 408 -172 l 359 -172 l 359 -20 q 166 39 241 -18 q 78 193 92 96 q 132 235 92 235 q 173 221 154 235 q 201 164 191 207 l 227 58 q 291 40 258 46 q 359 33 324 35 l 359 449 l 336 458 q 164 567 224 502 q 104 736 104 632 q 138 866 104 810 q 230 955 172 922 q 363 993 288 988 l 363 1133 l 410 1133 l 410 994 q 579 931 510 988 q 663 782 649 875 q 608 741 650 741 q 569 756 589 741 q 539 812 549 771 l 511 920 q 461 936 486 931 q 410 942 436 941 l 410 538 z "},"%":{"ha":1292,"x_min":113,"x_max":1181,"o":"m 317 -36 l 282 -8 l 987 1008 l 1023 981 l 317 -36 m 197 684 q 214 518 197 576 q 258 436 231 459 q 314 412 285 412 q 371 436 344 412 q 414 518 397 459 q 431 684 431 576 q 414 849 431 790 q 371 930 397 907 q 314 953 344 953 q 258 930 285 953 q 214 849 231 907 q 197 684 197 790 m 314 994 q 412 963 366 994 q 487 862 458 931 q 515 684 515 793 q 487 505 515 573 q 412 405 458 437 q 314 374 366 374 q 216 405 262 374 q 141 505 170 437 q 113 684 113 573 q 141 862 113 793 q 216 963 170 931 q 314 994 262 994 m 861 296 q 879 130 861 189 q 923 48 896 71 q 979 25 950 25 q 1036 48 1009 25 q 1079 130 1063 71 q 1096 296 1096 189 q 1079 462 1096 404 q 1036 544 1063 521 q 979 567 1009 567 q 923 544 950 567 q 879 462 896 521 q 861 296 861 404 m 979 607 q 1077 575 1031 607 q 1152 475 1122 543 q 1181 296 1181 406 q 1152 117 1181 185 q 1077 18 1122 49 q 979 -14 1031 -14 q 882 18 928 -14 q 807 117 836 49 q 778 296 778 185 q 807 475 778 406 q 882 575 836 543 q 979 607 928 607 z "},"&":{"ha":1075,"x_min":56,"x_max":1011,"o":"m 652 158 l 469 363 q 390 455 424 416 q 317 541 356 494 q 188 418 226 485 q 150 283 150 351 q 179 171 150 224 q 262 85 208 118 q 392 52 316 52 q 652 158 553 52 m 248 835 q 262 753 248 792 q 321 660 276 715 q 345 631 334 645 q 367 606 355 618 q 494 711 446 658 q 542 838 542 764 q 503 947 542 906 q 401 987 464 987 q 293 945 338 987 q 248 835 248 903 m 1011 593 l 899 578 q 838 374 875 463 q 741 197 801 285 q 806 129 772 165 q 879 53 840 94 l 1011 39 l 1007 -3 q 958 -12 981 -9 q 909 -16 936 -16 q 821 -3 857 -16 q 755 41 786 10 l 681 125 q 552 22 629 64 q 368 -20 476 -20 q 204 18 274 -20 q 95 118 134 56 q 56 256 56 180 q 289 571 56 450 l 268 595 q 193 709 216 654 q 170 822 170 765 q 200 933 170 886 q 284 1006 231 981 q 403 1032 337 1032 q 562 977 508 1032 q 616 840 616 922 q 559 697 616 758 q 393 576 501 635 q 450 513 420 545 q 518 439 479 481 q 613 335 566 386 q 711 229 659 284 q 793 390 762 307 q 843 579 824 472 l 718 593 l 718 637 l 1011 637 l 1011 593 z "},"'":{"ha":254,"x_min":69,"x_max":184,"o":"m 127 1112 q 184 1040 184 1112 q 180 970 184 1013 q 170 882 175 927 q 161 803 164 837 l 147 668 l 109 668 l 93 803 q 84 882 90 837 q 74 970 79 927 q 69 1040 69 1013 q 127 1112 69 1112 z "},"(":{"ha":493,"x_min":127,"x_max":456,"o":"m 218 418 q 240 181 218 291 q 313 -39 261 72 q 456 -281 365 -149 l 428 -302 q 200 34 273 -142 q 127 418 127 211 q 200 801 127 625 q 428 1137 273 977 l 456 1116 q 312 873 364 984 q 239 654 260 763 q 218 418 218 545 z "},")":{"ha":493,"x_min":37,"x_max":366,"o":"m 275 418 q 254 654 275 545 q 180 873 232 763 q 37 1116 128 984 l 64 1137 q 292 801 219 977 q 366 418 366 625 q 292 34 366 211 q 64 -302 219 -142 l 37 -281 q 181 -39 129 -149 q 254 181 233 72 q 275 418 275 291 z "},"*":{"ha":664,"x_min":32,"x_max":632,"o":"m 332 1129 q 363 1118 350 1129 q 376 1082 376 1106 q 370 1017 376 1061 q 357 920 363 972 l 347 836 l 422 871 q 526 921 483 899 q 591 942 570 942 q 621 929 610 942 q 632 897 632 916 q 585 853 632 863 q 437 823 538 844 l 355 808 l 412 746 q 500 654 465 690 q 536 593 536 619 q 524 564 536 575 q 494 553 511 553 q 440 596 465 553 q 372 718 415 640 l 334 791 l 293 718 q 225 597 252 642 q 170 553 199 553 q 141 564 154 553 q 129 593 129 575 q 164 654 129 619 q 253 746 199 688 l 310 808 l 227 822 q 78 853 124 842 q 32 897 32 864 q 43 929 32 916 q 74 942 55 942 q 138 921 96 942 q 241 871 180 899 l 318 835 l 309 920 q 295 1016 301 972 q 289 1082 289 1060 q 301 1118 289 1106 q 332 1129 314 1129 z "},"+":{"ha":796,"x_min":52,"x_max":746,"o":"m 746 530 l 746 468 l 431 468 l 431 129 l 366 129 l 366 468 l 52 468 l 52 530 l 366 530 l 366 861 l 431 861 l 431 530 l 746 530 z "},",":{"ha":450,"x_min":47,"x_max":301,"o":"m 239 -46 l 191 -8 q 144 74 144 27 q 163 124 144 103 q 215 146 181 146 q 250 139 232 146 q 286 114 267 132 q 298 70 294 90 q 301 21 301 49 q 268 -123 301 -56 q 180 -242 235 -191 q 64 -323 126 -294 l 47 -290 q 171 -189 122 -247 q 239 -46 220 -130 z "},"-":{"ha":467,"x_min":60,"x_max":407,"o":"m 60 339 l 60 410 l 407 410 l 407 339 l 60 339 z "},"­":{"ha":467,"x_min":60,"x_max":407,"o":"m 60 339 l 60 410 l 407 410 l 407 339 l 60 339 z "},".":{"ha":450,"x_min":143,"x_max":309,"o":"m 225 -18 q 167 6 191 -18 q 143 62 143 31 q 167 122 143 98 q 225 146 191 146 q 284 122 260 146 q 309 62 309 98 q 284 6 309 31 q 225 -18 260 -18 z "},"/":{"ha":471,"x_min":3,"x_max":467,"o":"m 3 -240 l 406 1067 l 467 1067 l 66 -240 l 3 -240 z "},":":{"ha":450,"x_min":143,"x_max":309,"o":"m 225 567 q 167 591 191 567 q 143 647 143 615 q 167 705 143 682 q 225 729 191 729 q 284 705 260 729 q 309 647 309 682 q 284 591 309 615 q 225 567 260 567 m 225 -18 q 167 6 191 -18 q 143 62 143 31 q 167 122 143 98 q 225 146 191 146 q 284 122 260 146 q 309 62 309 98 q 284 6 309 31 q 225 -18 260 -18 z "},";":{"ha":450,"x_min":47,"x_max":309,"o":"m 225 567 q 167 591 191 567 q 143 647 143 615 q 167 705 143 682 q 225 729 191 729 q 284 705 260 729 q 309 647 309 682 q 284 591 309 615 q 225 567 260 567 m 239 -46 l 191 -8 q 144 74 144 27 q 163 124 144 103 q 215 146 181 146 q 250 139 232 146 q 286 114 267 132 q 298 70 294 90 q 301 21 301 49 q 268 -123 301 -56 q 180 -242 235 -191 q 64 -323 126 -294 l 47 -290 q 171 -189 122 -247 q 239 -46 220 -130 z "},"<":{"ha":796,"x_min":90,"x_max":703,"o":"m 703 812 l 163 498 l 703 186 l 672 132 l 90 475 l 90 524 l 672 867 l 703 812 z "},"=":{"ha":796,"x_min":52,"x_max":746,"o":"m 746 318 l 52 318 l 52 379 l 746 379 l 746 318 m 746 618 l 52 618 l 52 681 l 746 681 l 746 618 z "},">":{"ha":796,"x_min":93,"x_max":705,"o":"m 123 867 l 705 524 l 705 475 l 123 132 l 93 186 l 633 498 l 93 812 l 123 867 z "},"?":{"ha":591,"x_min":107,"x_max":505,"o":"m 215 134 q 270 111 248 134 q 292 57 292 88 q 270 5 292 28 q 215 -18 248 -18 q 161 5 182 -18 q 140 57 140 28 q 161 111 140 88 q 215 134 182 134 m 392 873 l 192 904 q 124 930 142 913 q 107 971 107 948 q 123 1013 107 998 q 168 1036 139 1028 q 281 1003 222 1027 q 391 939 340 979 q 474 845 442 900 q 505 720 505 790 q 470 595 505 644 q 366 517 435 547 l 315 493 q 250 452 264 469 q 235 396 235 435 l 237 294 l 199 294 l 183 354 q 169 416 173 395 q 164 453 164 437 q 189 511 164 487 q 278 564 213 536 l 342 593 q 424 654 400 621 q 447 739 447 688 q 432 810 446 777 q 392 873 418 844 z "},"@":{"ha":1242,"x_min":53,"x_max":1189,"o":"m 713 228 l 786 597 q 740 639 765 627 q 685 652 715 652 q 605 631 647 652 q 524 557 563 611 q 459 437 487 506 q 432 292 432 369 q 462 175 432 214 q 545 136 492 136 q 617 155 579 136 q 713 228 655 174 m 882 684 l 794 245 q 876 119 766 119 q 992 162 933 119 q 1091 292 1051 205 q 1131 509 1131 378 q 1075 733 1131 638 q 923 879 1020 827 q 703 930 827 930 q 469 881 576 930 q 282 745 361 831 q 159 547 203 659 q 115 313 115 436 q 154 95 115 189 q 260 -62 193 1 q 417 -157 328 -125 q 606 -189 505 -189 q 742 -176 683 -189 q 857 -136 801 -163 l 869 -170 q 732 -218 805 -203 q 586 -233 659 -233 q 314 -173 435 -233 q 123 7 193 -112 q 53 300 53 125 q 102 561 53 439 q 240 777 151 684 q 450 922 330 869 q 711 975 570 975 q 966 914 859 975 q 1131 746 1073 853 q 1189 498 1189 638 q 1157 309 1189 390 q 1075 176 1126 229 q 967 97 1025 123 q 856 71 909 71 q 758 105 793 71 q 718 195 722 139 q 621 104 671 138 q 514 71 571 71 q 401 117 448 71 q 354 264 354 164 q 389 437 354 355 q 473 578 424 518 q 580 673 524 642 q 693 704 637 704 q 750 694 724 704 q 803 659 777 684 l 859 699 l 882 684 z "},"A":{"ha":989,"x_min":12,"x_max":979,"o":"m 302 396 l 629 396 l 464 892 l 302 396 m 848 57 l 979 45 l 979 0 l 586 0 l 586 45 l 742 58 l 646 347 l 286 347 l 193 60 l 336 45 l 336 0 l 12 0 l 12 45 l 135 58 l 456 1018 l 522 1018 l 848 57 z "},"B":{"ha":924,"x_min":75,"x_max":852,"o":"m 329 52 l 456 52 q 673 109 598 52 q 747 273 747 166 q 672 441 747 383 q 429 498 596 498 l 328 498 q 328 262 328 372 q 329 52 328 153 m 446 958 l 329 958 q 328 758 328 859 q 328 550 328 656 l 419 550 q 632 605 562 550 q 703 764 703 660 q 642 909 703 861 q 446 958 581 958 m 75 1008 l 479 1008 q 720 942 639 1008 q 802 766 802 875 q 745 619 802 686 q 562 528 688 553 q 785 439 717 510 q 852 272 852 369 q 814 139 852 201 q 692 38 775 77 q 475 0 608 0 l 75 0 l 75 45 l 224 58 q 225 261 224 159 q 225 467 225 363 l 225 545 q 225 748 225 646 q 224 951 224 850 l 75 965 l 75 1008 z "},"C":{"ha":957,"x_min":81,"x_max":885,"o":"m 818 271 l 885 271 l 879 54 q 734 -4 807 12 q 582 -21 662 -21 q 319 45 432 -21 q 143 230 206 112 q 81 504 81 349 q 118 716 81 620 q 223 884 155 813 q 382 993 290 954 q 582 1032 473 1032 q 726 1016 656 1032 q 868 957 796 999 l 872 741 l 806 741 l 774 929 q 686 965 730 954 q 595 977 642 977 q 390 921 480 977 q 249 759 300 865 q 197 504 197 654 q 247 249 197 354 q 385 89 297 144 q 587 33 473 33 q 688 44 639 33 q 786 79 737 54 l 818 271 z "},"D":{"ha":1064,"x_min":75,"x_max":983,"o":"m 330 52 l 458 52 q 765 172 661 52 q 868 503 868 292 q 766 842 868 726 q 476 958 665 958 l 330 958 q 328 752 328 857 q 328 538 328 647 l 328 494 q 328 263 328 372 q 330 52 328 155 m 75 1008 l 494 1008 q 753 950 644 1008 q 923 780 863 892 q 983 504 983 667 q 920 233 983 346 q 741 60 856 120 q 471 0 626 0 l 75 0 l 75 45 l 224 58 q 225 265 224 158 q 225 494 225 372 l 225 538 q 225 747 225 644 q 224 951 224 850 l 75 965 l 75 1008 z "},"E":{"ha":904,"x_min":75,"x_max":846,"o":"m 783 254 l 846 254 l 833 0 l 75 0 l 75 45 l 224 58 q 225 261 224 158 q 225 465 225 363 l 225 543 q 225 748 225 646 q 224 951 224 850 l 75 965 l 75 1008 l 808 1008 l 818 757 l 757 757 l 724 956 l 330 956 q 328 752 328 856 q 328 538 328 648 l 579 538 l 597 685 l 648 685 l 648 342 l 597 342 l 579 488 l 328 488 q 328 263 328 369 q 330 56 328 157 l 750 56 l 783 254 z "},"F":{"ha":869,"x_min":75,"x_max":819,"o":"m 725 956 l 330 956 q 328 752 328 856 q 328 538 328 648 l 587 538 l 606 685 l 656 685 l 656 334 l 606 334 l 586 488 l 328 488 q 328 264 328 370 q 330 58 328 159 l 485 45 l 485 0 l 75 0 l 75 45 l 224 58 q 225 261 224 158 q 225 465 225 363 l 225 543 q 225 748 225 646 q 224 951 224 850 l 75 965 l 75 1008 l 810 1008 l 819 757 l 758 757 l 725 956 z "},"G":{"ha":1025,"x_min":81,"x_max":1007,"o":"m 1007 479 l 1007 433 l 907 425 q 905 287 906 358 q 904 138 904 216 l 904 69 q 748 1 824 24 q 581 -21 672 -21 q 319 46 431 -21 q 143 232 206 114 q 81 504 81 351 q 145 778 81 659 q 323 964 210 897 q 586 1032 437 1032 q 751 1011 680 1032 q 888 951 822 991 l 892 736 l 823 736 l 793 924 q 595 977 706 977 q 387 920 477 977 q 248 757 298 863 q 197 504 197 652 q 246 254 197 359 q 384 92 295 149 q 596 35 473 35 q 803 81 707 35 l 803 138 q 802 281 803 210 q 800 422 801 353 l 633 433 l 633 479 l 1007 479 z "},"H":{"ha":1187,"x_min":75,"x_max":1112,"o":"m 1112 965 l 964 951 q 963 749 963 851 q 962 543 962 647 l 962 465 q 963 262 962 364 q 964 58 963 161 l 1112 45 l 1112 0 l 710 0 l 710 45 l 857 58 q 860 264 859 157 q 860 498 860 372 l 328 498 q 328 265 328 372 q 329 58 328 158 l 478 45 l 478 0 l 75 0 l 75 45 l 224 58 q 225 261 224 158 q 225 465 225 363 l 225 543 q 225 748 225 646 q 224 951 224 850 l 75 965 l 75 1008 l 478 1008 l 478 965 l 329 951 q 328 752 328 852 q 328 550 328 652 l 860 550 q 860 752 860 651 q 857 951 859 852 l 710 965 l 710 1008 l 1112 1008 l 1112 965 z "},"I":{"ha":553,"x_min":75,"x_max":478,"o":"m 478 965 l 330 951 q 328 749 328 851 q 328 543 328 647 l 328 465 q 328 262 328 364 q 330 58 328 161 l 478 45 l 478 0 l 75 0 l 75 45 l 224 58 q 225 261 224 158 q 225 465 225 363 l 225 543 q 225 748 225 646 q 224 951 224 850 l 75 965 l 75 1008 l 478 1008 l 478 965 z "},"J":{"ha":551,"x_min":-58,"x_max":497,"o":"m 497 1008 l 497 965 l 350 951 q 348 748 348 851 q 347 542 347 646 l 347 301 q 346 180 347 229 q 342 98 345 132 q 334 33 339 64 q 281 -113 322 -54 q 180 -204 240 -173 q 54 -235 121 -235 q -17 -223 15 -235 q -58 -179 -48 -212 q -31 -133 -53 -147 q 21 -119 -9 -119 q 69 -128 46 -119 q 122 -158 92 -136 l 151 -179 q 222 -97 192 -153 q 252 64 252 -40 q 251 117 252 85 q 249 205 250 149 q 247 355 248 261 q 244 595 245 450 q 240 951 242 740 l 79 965 l 79 1008 l 497 1008 z "},"K":{"ha":1000,"x_min":75,"x_max":1000,"o":"m 873 58 l 1000 45 l 1000 0 l 631 0 l 631 45 l 766 58 l 496 543 l 323 335 q 325 207 323 277 q 328 58 326 136 l 478 45 l 478 0 l 75 0 l 75 45 l 224 58 q 225 261 224 158 q 225 465 225 363 l 225 543 q 225 748 225 646 q 224 951 224 850 l 75 965 l 75 1008 l 478 1008 l 478 965 l 328 951 q 324 749 325 851 q 323 543 323 647 l 323 410 l 764 947 l 625 965 l 625 1008 l 966 1008 l 966 965 l 835 949 l 557 616 l 873 58 z "},"L":{"ha":875,"x_min":75,"x_max":815,"o":"m 753 268 l 815 268 l 803 0 l 75 0 l 75 45 l 224 58 q 225 262 224 161 q 225 464 225 364 l 225 543 q 225 749 225 647 q 224 951 224 851 l 75 965 l 75 1008 l 478 1008 l 478 965 l 330 951 q 328 745 328 850 q 328 524 328 640 l 328 437 q 328 254 328 352 q 330 56 328 155 l 713 56 l 753 268 z "},"M":{"ha":1352,"x_min":57,"x_max":1276,"o":"m 1276 965 l 1128 951 q 1125 749 1126 851 q 1125 543 1125 647 l 1125 465 q 1125 262 1125 364 q 1128 58 1126 161 l 1276 45 l 1276 0 l 882 0 l 882 45 l 1022 58 q 1024 259 1024 158 q 1025 458 1024 360 l 1026 890 l 668 0 l 619 0 l 249 895 l 257 558 l 257 61 l 395 45 l 395 0 l 62 0 l 62 45 l 200 61 l 200 950 l 57 965 l 57 1008 l 302 1008 l 664 135 l 1015 1008 l 1276 1008 l 1276 965 z "},"N":{"ha":1101,"x_min":62,"x_max":1043,"o":"m 1043 1008 l 1043 965 l 913 949 l 911 -11 l 868 -11 l 249 863 l 252 61 l 414 45 l 414 0 l 62 0 l 62 45 l 193 60 l 196 937 l 184 953 l 62 965 l 62 1008 l 271 1008 l 856 178 l 854 949 l 692 965 l 692 1008 l 1043 1008 z "},"O":{"ha":1060,"x_min":81,"x_max":981,"o":"m 197 504 q 218 327 197 412 q 281 177 239 243 q 385 72 323 111 q 530 33 448 33 q 676 72 614 33 q 781 177 739 111 q 843 327 822 243 q 864 504 864 412 q 843 681 864 596 q 781 832 822 766 q 676 938 739 899 q 530 977 614 977 q 385 938 448 977 q 281 832 323 899 q 218 681 239 766 q 197 504 197 596 m 530 1032 q 701 997 620 1032 q 844 893 781 961 q 944 727 907 825 q 981 504 981 629 q 945 286 981 382 q 846 120 909 189 q 702 15 783 52 q 530 -21 621 -21 q 360 14 441 -21 q 216 117 279 50 q 117 281 153 184 q 81 504 81 379 q 117 724 81 627 q 216 890 153 822 q 360 996 279 959 q 530 1032 441 1032 z "},"P":{"ha":878,"x_min":75,"x_max":829,"o":"m 449 958 l 330 958 q 328 752 328 857 q 328 543 328 648 l 328 461 l 422 461 q 596 494 530 461 q 692 584 662 526 q 722 715 722 641 q 657 896 722 833 q 449 958 592 958 m 418 411 l 328 411 q 328 237 328 325 q 330 58 328 149 l 485 45 l 485 0 l 75 0 l 75 45 l 224 58 q 225 261 224 158 q 225 465 225 363 l 225 543 q 225 748 225 646 q 224 951 224 850 l 75 965 l 75 1008 l 468 1008 q 739 928 648 1008 q 829 715 829 848 q 787 561 829 630 q 653 452 744 492 q 418 411 562 411 z "},"Q":{"ha":1060,"x_min":81,"x_max":981,"o":"m 197 504 q 218 327 197 412 q 281 177 239 243 q 385 72 323 111 q 530 33 448 33 q 676 72 614 33 q 781 177 739 111 q 843 327 822 243 q 864 504 864 412 q 843 681 864 596 q 781 832 822 766 q 676 938 739 899 q 530 977 614 977 q 385 938 448 977 q 281 832 323 899 q 218 681 239 766 q 197 504 197 596 m 908 -231 l 921 -267 q 835 -302 882 -291 q 746 -314 787 -314 q 594 -272 654 -314 q 505 -161 534 -229 q 475 -17 475 -94 q 278 62 368 -3 q 134 239 188 127 q 81 504 81 351 q 117 724 81 627 q 216 890 153 822 q 360 996 279 959 q 530 1032 441 1032 q 701 997 620 1032 q 844 893 781 961 q 944 727 907 825 q 981 504 981 629 q 925 239 981 352 q 777 59 869 125 q 574 -18 685 -7 q 631 -193 574 -130 q 781 -256 687 -256 q 842 -249 812 -256 q 908 -231 873 -243 z "},"R":{"ha":977,"x_min":75,"x_max":950,"o":"m 328 519 l 476 519 q 662 584 595 519 q 728 746 728 648 q 668 902 728 845 q 479 958 608 958 l 329 958 q 328 751 328 857 q 328 519 328 646 m 822 54 l 950 45 l 950 0 q 906 -8 932 -4 q 846 -12 879 -12 q 752 7 781 -12 q 710 69 722 26 l 636 319 q 597 411 620 378 q 534 456 574 444 q 431 469 495 469 l 328 469 q 328 259 328 361 q 329 58 328 157 l 478 45 l 478 0 l 75 0 l 75 45 l 224 58 q 225 261 224 158 q 225 465 225 363 l 225 543 q 225 748 225 646 q 224 951 224 850 l 75 965 l 75 1008 l 484 1008 q 742 940 650 1008 q 833 745 833 871 q 767 578 833 650 q 578 486 701 506 q 678 431 642 471 q 739 313 714 391 l 822 54 z "},"S":{"ha":771,"x_min":71,"x_max":701,"o":"m 367 582 l 427 558 q 590 474 530 517 q 676 378 650 431 q 701 257 701 326 q 657 109 701 171 q 535 13 612 46 q 357 -21 457 -21 q 195 3 271 -21 q 71 58 119 27 l 79 262 l 140 262 l 168 81 q 254 45 212 56 q 353 35 296 35 q 538 85 467 35 q 610 237 610 136 q 590 326 610 289 q 524 393 570 363 q 401 456 479 424 l 345 478 q 161 592 227 524 q 96 766 96 661 q 139 912 96 853 q 254 1002 182 972 q 412 1032 326 1032 q 548 1011 490 1032 q 656 956 606 990 l 648 764 l 587 764 l 558 939 q 489 968 524 960 q 411 977 454 977 q 251 930 314 977 q 187 790 187 883 q 235 664 187 712 q 367 582 282 615 z "},"T":{"ha":901,"x_min":31,"x_max":871,"o":"m 774 956 l 503 956 q 502 751 502 854 q 501 543 501 648 l 501 465 q 502 262 501 364 q 503 58 502 161 l 667 45 l 667 0 l 235 0 l 235 45 l 396 58 q 399 261 399 158 q 400 465 400 363 l 400 543 q 399 750 400 647 q 396 956 399 853 l 126 956 l 92 749 l 31 749 l 43 1008 l 857 1008 l 871 749 l 810 749 l 774 956 z "},"U":{"ha":1097,"x_min":66,"x_max":1039,"o":"m 1039 1008 l 1039 965 l 905 949 l 904 395 q 811 79 904 179 q 555 -21 718 -21 q 368 20 448 -21 q 245 149 289 61 q 201 378 201 237 l 201 541 q 201 747 201 644 q 199 953 201 850 l 66 965 l 66 1008 l 463 1008 l 463 965 l 306 950 q 303 747 303 850 q 302 541 302 644 l 302 407 q 335 200 302 277 q 428 89 368 123 q 570 56 488 56 q 780 142 712 56 q 848 432 848 228 l 848 947 l 681 965 l 681 1008 l 1039 1008 z "},"V":{"ha":996,"x_min":14,"x_max":982,"o":"m 982 1008 l 982 965 l 850 950 l 532 -11 l 482 -11 l 136 953 l 14 965 l 14 1008 l 401 1008 l 401 961 l 245 949 l 524 138 l 786 949 l 636 961 l 636 1008 l 982 1008 z "},"W":{"ha":1447,"x_min":20,"x_max":1430,"o":"m 1430 1008 l 1430 965 l 1296 950 l 1040 -11 l 990 -11 l 725 832 l 469 -11 l 422 -11 l 150 951 l 20 965 l 20 1008 l 401 1008 l 401 965 l 254 950 l 467 168 l 711 950 l 561 965 l 561 1008 l 942 1008 l 942 965 l 786 950 l 1029 157 l 1235 949 l 1090 965 l 1090 1008 l 1430 1008 z "},"X":{"ha":966,"x_min":24,"x_max":945,"o":"m 812 58 l 945 45 l 945 0 l 554 0 l 554 45 l 701 58 l 465 454 l 225 60 l 366 45 l 366 0 l 24 0 l 24 45 l 161 61 l 439 498 l 168 951 l 37 965 l 37 1008 l 429 1008 l 429 965 l 282 951 l 500 583 l 722 949 l 579 965 l 579 1008 l 922 1008 l 922 965 l 785 949 l 526 541 l 812 58 z "},"Y":{"ha":951,"x_min":32,"x_max":928,"o":"m 799 949 l 529 403 q 529 211 529 288 q 530 58 530 134 l 693 45 l 693 0 l 261 0 l 261 45 l 424 58 q 426 209 426 134 q 427 397 427 285 l 150 953 l 32 965 l 32 1008 l 419 1008 l 419 965 l 267 950 l 501 458 l 737 949 l 589 965 l 589 1008 l 928 1008 l 928 965 l 799 949 z "},"Z":{"ha":829,"x_min":36,"x_max":793,"o":"m 729 261 l 793 261 l 781 0 l 36 0 l 36 43 l 647 956 l 158 956 l 118 749 l 54 749 l 68 1008 l 762 1008 l 762 965 l 155 56 l 686 56 l 729 261 z "},"[":{"ha":467,"x_min":150,"x_max":408,"o":"m 408 1026 l 237 1013 q 235 807 235 911 q 235 597 235 703 l 235 237 q 235 31 235 134 q 237 -176 235 -73 l 408 -192 l 408 -239 l 150 -239 q 154 -3 153 -123 q 154 237 154 117 l 154 597 q 154 836 154 716 q 150 1074 153 955 l 408 1074 l 408 1026 z "},"\\":{"ha":471,"x_min":3,"x_max":467,"o":"m 467 -240 l 404 -240 l 3 1067 l 64 1067 l 467 -240 z "},"]":{"ha":467,"x_min":58,"x_max":317,"o":"m 313 597 l 313 237 q 313 -1 313 119 q 317 -239 313 -120 l 58 -239 l 58 -192 l 229 -176 q 233 29 233 -75 q 233 237 233 134 l 233 597 q 233 804 233 701 q 229 1013 233 908 l 58 1026 l 58 1074 l 317 1074 q 313 838 313 958 q 313 597 313 718 z "},"^":{"ha":796,"x_min":135,"x_max":667,"o":"m 667 351 l 619 317 l 399 663 l 183 317 l 135 351 l 367 728 l 431 728 l 667 351 z "},"_":{"ha":766,"x_min":60,"x_max":707,"o":"m 60 -87 l 60 -17 l 707 -17 l 707 -87 l 60 -87 z "},"`":{"ha":600,"x_min":127,"x_max":379,"o":"m 379 861 l 353 840 q 261 928 306 885 q 175 1008 216 971 q 137 1050 147 1034 q 127 1080 127 1067 q 141 1115 127 1103 q 171 1126 154 1126 q 203 1114 186 1126 q 240 1071 220 1101 q 308 967 273 1021 q 379 861 344 914 z "},"a":{"ha":762,"x_min":75,"x_max":745,"o":"m 505 160 l 505 399 q 415 374 460 388 q 335 349 369 361 q 204 267 238 310 q 171 178 171 224 q 208 83 171 114 q 304 53 245 53 q 396 77 353 53 q 505 160 439 100 m 722 72 l 745 47 q 692 -2 720 13 q 631 -17 664 -17 q 546 18 577 -17 q 509 113 515 52 q 391 13 443 45 q 268 -20 340 -20 q 132 27 188 -20 q 75 163 75 73 q 127 288 75 235 q 314 389 178 342 q 408 417 357 404 q 505 440 458 430 l 505 486 q 489 606 505 564 q 437 665 472 648 q 349 681 403 681 q 239 659 296 681 l 210 558 q 149 503 195 503 q 94 550 99 503 q 190 682 117 635 q 370 729 262 729 q 541 673 484 729 q 597 486 597 617 l 597 155 q 614 65 597 90 q 661 40 630 40 q 722 72 690 40 z "},"b":{"ha":868,"x_min":53,"x_max":796,"o":"m 273 568 l 273 138 q 375 65 325 87 q 476 43 425 43 q 585 75 534 43 q 666 177 635 108 q 697 355 697 245 q 636 588 697 509 q 481 667 575 667 q 386 648 436 667 q 273 568 335 629 m 271 890 l 271 612 q 387 702 326 675 q 507 729 448 729 q 656 684 591 729 q 759 557 722 640 q 796 364 796 475 q 758 162 796 249 q 651 28 719 76 q 493 -20 583 -20 q 381 4 439 -20 q 272 93 324 28 l 261 -12 l 56 0 l 56 40 l 178 56 q 180 188 179 114 q 180 315 180 261 l 180 1019 l 53 1026 l 53 1068 l 253 1116 l 275 1104 l 271 890 z "},"c":{"ha":733,"x_min":69,"x_max":672,"o":"m 647 160 l 672 146 q 569 24 637 68 q 404 -20 502 -20 q 228 27 303 -20 q 111 157 153 73 q 69 354 69 241 q 118 556 69 472 q 246 685 168 640 q 414 729 325 729 q 577 681 507 729 q 669 550 648 632 q 615 504 661 504 q 572 518 587 504 q 551 558 557 533 l 519 660 q 468 676 494 671 q 418 681 442 681 q 289 642 345 681 q 199 532 232 604 q 167 364 167 461 q 200 196 167 266 q 293 88 234 125 q 428 50 352 50 q 550 78 494 50 q 647 160 606 106 z "},"d":{"ha":856,"x_min":72,"x_max":823,"o":"m 596 146 l 596 574 q 498 645 544 624 q 406 667 452 667 q 288 634 342 667 q 203 531 235 601 q 171 350 171 461 q 236 118 171 194 q 400 43 301 43 q 501 66 455 43 q 596 146 547 89 m 688 53 l 823 40 l 823 0 l 602 -12 l 597 94 q 375 -20 509 -20 q 217 27 286 -20 q 111 157 149 74 q 72 347 72 239 q 114 550 72 464 q 227 682 155 635 q 392 729 299 729 q 496 706 444 729 q 597 625 548 682 l 597 1019 l 467 1026 l 467 1068 l 671 1116 l 692 1104 l 688 893 l 688 53 z "},"e":{"ha":754,"x_min":72,"x_max":682,"o":"m 172 411 l 525 410 q 577 429 564 410 q 590 484 590 449 q 567 579 590 534 q 502 653 544 625 q 401 681 459 681 q 295 649 345 681 q 212 557 245 618 q 172 411 179 497 m 672 364 l 171 364 q 207 187 172 256 q 300 84 242 117 q 432 50 359 50 q 558 78 506 50 q 653 153 611 105 l 679 134 q 567 21 637 62 q 407 -20 496 -20 q 237 23 313 -20 q 116 148 161 65 q 72 353 72 231 q 118 552 72 467 q 241 683 165 636 q 407 729 317 729 q 551 693 489 729 q 648 594 613 658 q 682 447 682 530 q 672 364 682 393 z "},"f":{"ha":532,"x_min":52,"x_max":618,"o":"m 52 700 l 187 714 q 218 912 195 833 q 293 1043 241 990 q 389 1111 338 1092 q 488 1131 439 1131 q 573 1113 536 1131 q 618 1061 610 1095 q 600 1024 617 1039 q 551 1008 582 1008 q 502 1020 526 1008 q 450 1054 478 1031 l 415 1082 q 339 1018 370 1064 q 293 905 310 975 q 278 710 277 835 l 500 710 l 500 653 l 279 653 l 279 315 q 280 185 279 250 q 282 56 281 121 l 427 40 l 427 0 l 53 0 l 53 40 l 183 56 q 187 315 187 184 l 187 653 l 52 653 l 52 700 z "},"g":{"ha":772,"x_min":62,"x_max":730,"o":"m 355 279 q 483 337 435 279 q 530 485 530 394 q 484 630 530 574 q 359 685 438 685 q 234 628 281 685 q 187 482 187 570 q 233 336 187 393 q 355 279 279 279 m 488 -17 l 310 -17 q 268 -16 288 -17 q 231 -11 248 -14 q 172 -78 191 -43 q 153 -155 153 -112 q 212 -273 153 -234 q 372 -311 271 -311 q 573 -261 505 -311 q 642 -140 642 -211 q 607 -53 642 -88 q 488 -17 573 -17 m 730 710 l 730 635 l 572 636 q 619 482 619 576 q 585 350 619 405 q 492 264 551 294 q 358 235 433 235 q 243 256 293 235 q 201 198 216 224 q 187 143 187 172 q 212 89 187 109 q 298 69 236 69 l 504 69 q 670 21 614 69 q 725 -114 725 -26 q 686 -234 725 -176 q 568 -328 647 -291 q 371 -364 490 -364 q 139 -310 216 -364 q 62 -172 62 -256 q 97 -78 62 -119 q 203 -1 132 -37 q 135 39 159 12 q 111 107 111 65 q 135 185 111 146 q 211 271 158 223 q 127 355 158 301 q 97 482 97 408 q 131 614 97 559 q 224 700 165 670 q 358 729 283 729 q 536 673 468 729 l 708 725 l 730 710 z "},"h":{"ha":907,"x_min":53,"x_max":857,"o":"m 746 56 l 857 40 l 857 0 l 526 0 l 526 40 l 648 56 q 651 186 650 113 q 652 315 652 259 l 652 460 q 617 611 652 568 q 515 653 582 653 q 405 628 465 653 q 273 529 345 602 l 273 315 q 274 187 273 261 q 277 56 275 113 l 386 40 l 386 0 l 56 0 l 56 40 l 178 56 q 180 187 179 113 q 180 315 180 261 l 180 1019 l 53 1026 l 53 1068 l 253 1116 l 275 1104 l 271 890 l 271 581 q 410 691 336 652 q 555 729 485 729 q 695 668 647 729 q 743 461 743 607 l 743 315 q 744 186 743 259 q 746 56 745 113 z "},"i":{"ha":450,"x_min":53,"x_max":390,"o":"m 225 928 q 170 949 193 928 q 147 1003 147 970 q 170 1059 147 1038 q 225 1079 193 1079 q 281 1059 257 1079 q 304 1003 304 1038 q 281 949 304 970 q 225 928 257 928 m 279 56 l 390 40 l 390 0 l 60 0 l 60 40 l 183 56 q 185 187 184 113 q 186 315 186 261 l 186 392 q 185 509 186 457 q 182 616 184 562 l 53 627 l 53 667 l 261 726 l 279 713 l 277 522 l 277 315 q 277 187 277 261 q 279 56 278 113 z "},"j":{"ha":418,"x_min":-107,"x_max":301,"o":"m 50 667 l 256 726 l 275 713 l 271 522 l 271 172 q 265 -55 271 32 q 241 -197 259 -142 q 187 -293 224 -252 q 109 -357 150 -337 q 11 -378 67 -378 q -77 -357 -50 -378 q -107 -315 -105 -337 q -35 -265 -92 -265 q 12 -274 -11 -265 q 62 -300 35 -282 l 93 -321 q 140 -271 122 -303 q 173 -121 164 -222 q 182 138 182 -21 l 182 390 q 181 513 182 459 q 178 616 180 568 l 50 627 l 50 667 m 222 1079 q 278 1059 254 1079 q 301 1003 301 1038 q 278 949 301 970 q 222 928 254 928 q 167 949 190 928 q 144 1003 144 970 q 167 1059 144 1038 q 222 1079 190 1079 z "},"k":{"ha":818,"x_min":53,"x_max":815,"o":"m 708 53 l 815 40 l 815 0 l 632 0 l 387 396 l 273 282 q 274 168 273 228 q 277 56 275 109 l 396 40 l 396 0 l 53 0 l 53 40 l 178 56 q 180 186 179 117 q 180 315 180 256 l 180 1019 l 53 1026 l 53 1068 l 257 1116 l 278 1104 l 273 890 l 273 347 l 566 646 l 440 667 l 440 710 l 781 710 l 781 667 l 642 652 l 453 461 l 708 53 z "},"l":{"ha":450,"x_min":45,"x_max":406,"o":"m 277 56 l 406 40 l 406 0 l 45 0 l 45 40 l 178 56 q 180 186 179 117 q 180 315 180 255 l 180 1019 l 53 1026 l 53 1068 l 257 1116 l 278 1104 l 273 890 l 273 315 q 274 186 273 255 q 277 56 275 117 z "},"m":{"ha":1346,"x_min":54,"x_max":1297,"o":"m 1185 56 l 1297 40 l 1297 0 l 966 0 l 966 40 l 1088 56 q 1089 186 1088 113 q 1090 315 1090 259 l 1090 461 q 1056 611 1090 570 q 957 653 1021 653 q 850 628 907 653 q 726 533 794 602 q 728 499 728 517 q 729 463 729 481 l 729 315 q 730 186 729 259 q 732 56 731 113 l 844 40 l 844 0 l 515 0 l 515 40 l 635 56 q 636 186 635 113 q 637 315 637 259 l 637 460 q 604 610 637 566 q 509 653 571 653 q 404 627 458 653 q 278 530 349 602 l 278 315 q 279 187 278 261 q 281 56 279 113 l 392 40 l 392 0 l 61 0 l 61 40 l 183 56 q 185 187 184 113 q 186 315 186 261 l 186 390 q 185 513 186 459 q 182 616 184 568 l 54 625 l 54 665 l 248 726 l 265 713 l 275 582 q 407 691 338 653 q 545 729 475 729 q 656 694 612 729 q 718 582 701 660 q 851 693 781 657 q 993 729 921 729 q 1132 670 1082 729 q 1182 471 1182 610 l 1182 315 q 1183 186 1182 259 q 1185 56 1183 113 z "},"n":{"ha":908,"x_min":54,"x_max":859,"o":"m 747 56 l 859 40 l 859 0 l 529 0 l 529 40 l 650 56 q 652 186 651 113 q 653 315 653 259 l 653 460 q 619 611 653 568 q 518 653 585 653 q 409 627 468 653 q 278 532 350 602 l 278 315 q 279 187 278 261 q 281 56 279 113 l 392 40 l 392 0 l 61 0 l 61 40 l 183 56 q 185 187 184 113 q 186 315 186 261 l 186 390 q 185 513 186 459 q 182 616 184 567 l 54 625 l 54 665 l 248 726 l 265 713 l 275 582 q 414 691 340 654 q 557 729 488 729 q 696 668 648 729 q 745 463 745 606 l 745 315 q 745 186 745 259 q 747 56 746 113 z "},"o":{"ha":817,"x_min":72,"x_max":746,"o":"m 408 -20 q 247 21 323 -20 q 121 144 170 61 q 72 353 72 227 q 121 562 72 479 q 247 687 170 646 q 408 729 324 729 q 570 687 492 729 q 696 562 647 646 q 746 353 746 479 q 696 144 746 227 q 570 21 647 61 q 408 -20 492 -20 m 408 31 q 580 114 517 31 q 643 353 643 197 q 580 594 643 508 q 408 681 517 681 q 237 594 299 681 q 175 353 175 508 q 237 114 175 197 q 408 31 299 31 z "},"p":{"ha":871,"x_min":56,"x_max":799,"o":"m 279 570 l 279 132 q 375 63 328 83 q 475 43 422 43 q 587 75 536 43 q 669 175 638 106 q 700 353 700 243 q 639 587 700 508 q 484 667 578 667 q 391 647 441 667 q 279 570 340 628 m 267 713 l 275 612 q 390 702 328 675 q 511 729 451 729 q 660 684 595 729 q 762 555 724 638 q 799 359 799 472 q 760 158 799 243 q 651 27 720 73 q 493 -20 582 -20 q 384 2 440 -20 q 277 85 328 23 l 277 -45 q 277 -174 277 -105 q 279 -306 278 -243 l 422 -322 l 422 -364 l 57 -364 l 57 -322 l 184 -306 q 186 -176 186 -244 q 187 -47 187 -108 l 187 387 q 186 512 187 457 q 183 616 185 567 l 56 625 l 56 665 l 248 726 l 267 713 z "},"q":{"ha":831,"x_min":72,"x_max":821,"o":"m 599 149 l 599 570 q 499 644 545 621 q 404 667 453 667 q 287 633 340 667 q 202 529 234 600 q 171 347 171 458 q 236 116 171 190 q 400 43 301 43 q 503 67 456 43 q 599 149 549 92 m 694 -306 l 821 -322 l 821 -364 l 457 -364 l 457 -322 l 599 -306 q 601 -176 600 -241 q 602 -47 602 -111 l 602 100 q 497 8 555 37 q 374 -20 439 -20 q 217 27 285 -20 q 110 155 149 73 q 72 346 72 237 q 113 548 72 462 q 226 682 155 634 q 387 729 297 729 q 497 704 441 729 q 604 618 553 678 l 672 724 l 696 713 l 690 509 l 690 -47 q 694 -306 690 -176 z "},"r":{"ha":624,"x_min":54,"x_max":612,"o":"m 265 713 l 278 529 q 376 675 313 621 q 509 729 439 729 q 572 716 544 729 q 612 681 601 703 q 542 599 612 599 q 497 610 517 599 q 457 640 478 621 l 439 654 q 278 444 335 600 l 278 315 q 279 188 278 261 q 281 56 279 114 l 411 40 l 411 0 l 62 0 l 62 40 l 183 56 q 185 187 184 113 q 186 315 186 261 l 186 390 q 185 513 186 459 q 182 616 184 567 l 54 625 l 54 665 l 248 726 l 265 713 z "},"s":{"ha":647,"x_min":77,"x_max":578,"o":"m 322 415 l 382 395 q 533 305 488 355 q 578 186 578 256 q 548 84 578 132 q 456 9 517 37 q 301 -20 395 -20 q 187 -6 239 -20 q 81 33 136 7 l 77 192 l 135 192 l 164 58 q 226 38 192 45 q 302 31 260 31 q 443 68 397 31 q 489 164 489 106 q 455 246 489 214 q 340 307 422 278 l 272 332 q 140 408 190 362 q 90 530 90 454 q 155 671 90 613 q 339 729 219 729 q 447 714 400 729 q 545 668 494 699 l 541 522 l 485 522 l 463 646 q 338 681 401 681 q 218 646 257 681 q 179 557 179 610 q 213 474 179 504 q 322 415 246 444 z "},"t":{"ha":493,"x_min":18,"x_max":475,"o":"m 452 75 l 475 43 q 318 -20 419 -20 q 158 158 154 -20 q 159 208 158 182 q 160 272 160 234 l 160 653 l 18 653 l 18 700 l 163 713 l 192 922 l 260 922 l 253 710 l 461 710 l 461 653 l 252 653 l 252 161 q 276 66 252 96 q 345 37 300 37 q 398 47 374 37 q 452 75 422 56 z "},"u":{"ha":889,"x_min":47,"x_max":828,"o":"m 718 56 l 828 40 l 828 0 l 636 -11 l 628 129 q 503 20 572 60 q 357 -20 434 -20 q 210 41 261 -20 q 160 256 159 102 l 164 644 l 47 661 l 47 701 l 244 718 l 258 701 l 252 493 l 252 264 q 288 104 252 149 q 393 58 323 58 q 627 179 516 58 l 629 644 l 514 661 l 514 701 l 708 718 l 724 701 l 718 493 l 718 56 z "},"v":{"ha":750,"x_min":-5,"x_max":742,"o":"m 742 710 l 742 667 l 650 652 l 403 -8 l 354 -8 l 89 654 l -5 667 l -5 710 l 328 710 l 328 667 l 196 653 l 400 109 l 591 652 l 464 667 l 464 710 l 742 710 z "},"w":{"ha":1147,"x_min":-3,"x_max":1135,"o":"m 1135 710 l 1135 667 l 1047 650 l 828 -8 l 786 -8 q 708 201 741 113 q 652 355 675 290 q 611 473 629 421 q 579 574 594 525 l 370 -8 l 328 -8 l 90 654 l -3 667 l -3 710 l 318 710 l 318 667 l 193 653 l 370 125 l 557 653 l 443 667 l 443 710 l 750 710 l 750 667 l 635 652 l 827 123 l 986 650 l 860 667 l 860 710 l 1135 710 z "},"x":{"ha":774,"x_min":16,"x_max":758,"o":"m 653 54 l 758 40 l 758 0 l 428 0 l 428 40 l 546 54 l 370 309 l 182 56 l 296 40 l 296 0 l 16 0 l 16 40 l 114 54 l 342 347 l 127 654 l 25 667 l 25 710 l 336 710 l 336 667 l 231 653 l 401 410 l 582 652 l 471 667 l 471 710 l 743 710 l 743 667 l 652 653 l 429 370 l 653 54 z "},"y":{"ha":757,"x_min":-12,"x_max":758,"o":"m 758 710 l 758 668 l 668 656 l 406 -45 q 267 -299 339 -220 q 113 -378 194 -378 q 29 -357 66 -378 q -12 -300 -8 -336 q 18 -263 -5 -275 q 68 -252 41 -252 q 117 -263 94 -252 q 165 -297 139 -274 l 178 -310 q 273 -216 232 -277 q 345 -77 314 -155 l 361 -31 l 89 657 l -5 668 l -5 710 l 326 710 l 326 668 l 195 654 l 404 90 l 608 654 l 473 668 l 473 710 l 758 710 z "},"z":{"ha":685,"x_min":60,"x_max":640,"o":"m 586 229 l 640 229 l 627 0 l 60 0 l 60 41 l 507 663 l 155 663 l 118 494 l 64 500 l 75 710 l 615 710 l 615 668 l 168 49 l 543 49 l 586 229 z "},"{":{"ha":518,"x_min":60,"x_max":473,"o":"m 473 1026 l 427 1023 q 297 987 332 1017 q 261 888 261 958 q 273 774 261 828 q 296 675 284 721 q 307 595 307 630 q 273 479 307 528 q 151 418 238 431 q 273 355 238 404 q 307 240 307 307 q 296 159 307 205 q 273 60 284 114 q 261 -53 261 7 q 297 -152 261 -123 q 427 -189 332 -182 l 473 -192 l 473 -239 l 412 -239 q 238 -191 295 -239 q 180 -54 180 -142 q 197 61 180 5 q 229 166 213 117 q 245 252 245 214 q 204 348 245 310 q 60 395 162 385 l 60 440 q 204 488 162 450 q 245 585 245 526 q 229 669 245 621 q 197 774 213 718 q 180 889 180 830 q 238 1025 180 977 q 412 1074 295 1074 l 473 1074 l 473 1026 z "},"|":{"ha":371,"x_min":153,"x_max":218,"o":"m 153 -375 l 153 1126 l 218 1126 l 218 -375 l 153 -375 z "},"}":{"ha":518,"x_min":45,"x_max":458,"o":"m 458 440 l 458 395 q 314 348 356 385 q 272 252 272 310 q 289 166 272 214 q 321 61 305 117 q 338 -54 338 5 q 280 -191 338 -142 q 106 -239 223 -239 l 45 -239 l 45 -192 l 92 -189 q 221 -152 185 -182 q 257 -53 257 -123 q 245 60 257 7 q 222 159 234 114 q 211 240 211 205 q 245 355 211 307 q 367 418 280 404 q 245 479 280 431 q 211 595 211 528 q 222 675 211 630 q 245 774 234 721 q 257 888 257 828 q 221 987 257 958 q 92 1023 185 1017 l 45 1026 l 45 1074 l 106 1074 q 280 1025 223 1074 q 338 889 338 977 q 321 774 338 830 q 289 669 305 718 q 272 585 272 621 q 314 488 272 526 q 458 440 356 450 z "},"~":{"ha":796,"x_min":82,"x_max":718,"o":"m 424 538 q 487 491 457 506 q 553 476 517 476 q 623 507 593 476 q 663 612 652 538 l 718 604 q 667 465 711 515 q 546 415 624 415 q 458 436 497 415 q 378 496 419 457 q 249 558 313 558 q 177 528 207 558 q 136 424 146 498 l 82 432 q 133 570 88 520 q 254 619 177 619 q 342 597 303 619 q 424 538 382 575 z "},"¡":{"ha":410,"x_min":129,"x_max":281,"o":"m 204 739 q 259 716 237 739 q 281 664 281 693 q 259 610 281 633 q 204 587 237 587 q 150 610 172 587 q 129 664 129 633 q 150 716 129 693 q 204 739 172 739 m 204 -314 q 160 -297 176 -314 q 143 -241 143 -280 q 151 -92 143 -190 q 171 155 159 5 l 186 425 l 224 425 l 239 155 q 258 -92 250 5 q 267 -241 267 -190 q 250 -297 267 -280 q 204 -314 233 -314 z "},"¢":{"ha":745,"x_min":71,"x_max":672,"o":"m 376 171 l 376 796 q 226 698 285 780 q 167 482 167 616 q 225 269 167 350 q 376 171 283 187 m 647 273 l 672 260 q 577 144 638 186 q 427 96 516 101 l 427 -71 l 376 -71 l 376 96 q 217 150 286 102 q 109 280 148 197 q 71 471 71 363 q 113 662 71 581 q 225 791 156 743 q 376 847 295 838 l 376 996 l 427 996 l 427 850 q 582 798 515 847 q 669 671 648 749 q 614 625 661 625 q 571 643 588 625 q 543 701 553 661 l 519 778 q 427 800 473 798 l 427 167 q 548 195 489 168 q 647 273 606 222 z "},"£":{"ha":745,"x_min":57,"x_max":690,"o":"m 155 89 l 690 89 l 690 0 l 57 0 l 57 60 q 185 194 142 116 q 228 367 228 272 q 226 405 228 387 q 221 439 224 422 l 60 439 l 60 497 l 204 497 q 162 604 184 551 q 140 730 140 656 q 174 868 140 808 q 269 961 208 927 q 410 994 329 994 q 581 939 509 994 q 671 794 653 883 q 618 758 658 758 q 578 774 595 758 q 551 831 561 790 l 518 928 q 470 941 493 937 q 425 945 447 945 q 292 891 342 945 q 241 736 241 838 q 255 610 241 665 q 281 497 269 555 l 554 497 l 554 439 l 290 439 q 292 409 292 425 q 293 376 293 393 q 155 89 291 191 z "},"¤":{"ha":746,"x_min":43,"x_max":704,"o":"m 374 309 q 467 333 425 309 q 533 401 509 358 q 558 498 558 444 q 533 597 558 554 q 467 664 509 640 q 374 688 425 688 q 280 664 323 688 q 213 597 238 640 q 187 498 187 554 q 213 399 187 442 q 281 333 239 357 q 374 309 323 309 m 559 336 l 616 298 q 682 251 661 271 q 703 211 703 232 q 690 181 703 193 q 660 168 677 168 q 620 188 639 168 q 572 254 600 208 l 534 313 q 374 256 465 256 q 211 313 279 256 l 174 256 q 126 190 146 211 q 87 168 107 168 q 56 181 68 168 q 43 211 43 193 q 63 251 43 232 q 129 298 84 271 l 186 338 q 143 409 159 369 q 127 498 127 450 q 143 588 127 547 q 187 660 159 629 l 131 697 q 64 745 85 726 q 43 785 43 765 q 56 817 43 804 q 87 829 68 829 q 126 808 107 829 q 174 742 146 787 l 212 685 q 374 741 279 741 q 460 726 419 741 q 534 685 501 711 l 572 742 q 620 807 600 785 q 661 829 640 829 q 691 816 679 829 q 704 783 704 802 q 683 745 704 764 q 616 697 663 726 l 559 660 q 604 588 588 629 q 619 498 619 547 q 603 409 619 450 q 559 336 587 368 z "},"¥":{"ha":745,"x_min":-11,"x_max":755,"o":"m 755 932 l 648 918 l 443 460 l 667 460 l 667 401 l 419 401 l 419 301 l 667 301 l 667 243 l 419 243 q 419 156 419 199 q 421 57 420 113 l 578 43 l 578 0 l 168 0 l 168 43 l 323 57 q 326 156 325 112 q 328 243 327 199 l 81 243 l 81 301 l 328 301 l 328 401 l 81 401 l 81 460 l 302 460 l 89 921 l -11 932 l -11 975 l 326 975 l 326 932 l 197 920 l 396 468 l 595 918 l 467 932 l 467 975 l 755 975 l 755 932 z "},"¦":{"ha":371,"x_min":153,"x_max":218,"o":"m 153 -375 l 153 300 l 218 300 l 218 -375 l 153 -375 m 218 481 l 153 481 l 153 1126 l 218 1126 l 218 481 z "},"§":{"ha":1389,"x_min":397,"x_max":997,"o":"m 689 314 q 860 228 805 271 q 929 378 929 291 q 908 465 929 429 q 837 532 886 501 q 704 596 788 562 q 608 639 649 618 q 539 685 567 661 q 465 533 465 622 q 487 444 465 481 q 557 376 508 406 q 689 314 606 345 m 869 896 l 831 997 q 778 1015 804 1008 q 720 1021 751 1021 q 586 980 632 1021 q 541 867 541 939 q 557 793 541 825 q 614 732 573 760 q 729 676 655 705 q 937 556 877 620 q 997 400 997 493 q 969 296 997 347 q 885 207 942 245 q 927 143 915 177 q 939 68 939 110 q 870 -91 939 -28 q 677 -153 802 -153 q 510 -107 576 -153 q 419 26 444 -61 q 435 58 422 47 q 467 69 448 69 q 501 57 486 69 q 526 16 516 45 l 566 -87 q 616 -105 590 -99 q 675 -111 643 -111 q 811 -67 764 -111 q 859 53 859 -23 q 842 122 859 93 q 780 179 825 152 q 653 237 735 205 q 457 352 516 288 q 397 505 397 416 q 426 615 397 562 q 514 707 454 669 q 472 773 485 739 q 460 851 460 808 q 527 1004 460 944 q 715 1064 593 1064 q 886 1018 819 1064 q 977 886 954 972 q 962 853 975 865 q 930 842 948 842 q 896 853 911 842 q 869 896 881 865 z "},"¨":{"ha":600,"x_min":79,"x_max":521,"o":"m 450 925 q 400 944 422 925 q 379 994 379 962 q 400 1042 379 1023 q 450 1061 422 1061 q 500 1042 479 1061 q 521 994 521 1023 q 500 944 521 962 q 450 925 479 925 m 150 925 q 100 944 121 925 q 79 994 79 962 q 100 1042 79 1023 q 150 1061 121 1061 q 200 1042 178 1061 q 221 994 221 1023 q 200 944 221 962 q 150 925 178 925 z "},"©":{"ha":1136,"x_min":45,"x_max":1092,"o":"m 703 264 l 721 379 l 774 379 l 768 241 q 683 208 726 218 q 591 199 640 199 q 439 238 505 199 q 336 347 373 277 q 298 509 298 417 q 337 669 298 599 q 441 779 375 739 q 591 819 508 819 q 681 810 643 819 q 762 775 720 800 l 765 636 l 713 636 l 694 755 q 600 775 652 775 q 444 704 506 775 q 382 509 382 633 q 442 312 382 381 q 599 243 503 243 q 648 248 621 243 q 703 264 675 252 m 570 25 q 806 84 701 25 q 973 251 911 142 q 1035 507 1035 359 q 973 762 1035 655 q 805 926 911 869 q 570 983 700 983 q 333 926 438 983 q 166 762 227 869 q 104 507 104 656 q 166 250 104 357 q 333 83 227 142 q 570 25 438 25 m 570 1032 q 772 996 677 1032 q 939 892 867 960 q 1051 727 1010 824 q 1092 507 1092 630 q 1051 287 1092 385 q 939 121 1010 189 q 772 16 867 52 q 570 -21 677 -21 q 366 16 461 -21 q 198 121 271 52 q 85 287 126 189 q 45 507 45 385 q 85 727 45 630 q 198 892 126 824 q 366 996 271 960 q 570 1032 461 1032 z "},"ª":{"ha":514,"x_min":43,"x_max":501,"o":"m 330 751 l 330 908 q 274 893 301 901 q 227 876 248 885 q 145 827 166 854 q 123 766 123 799 q 149 706 123 725 q 207 688 174 688 q 261 702 235 688 q 330 751 288 716 m 485 703 l 501 686 q 465 646 486 658 q 421 635 445 635 q 358 656 379 635 q 332 718 336 678 q 256 654 290 675 q 174 632 222 632 q 81 664 119 632 q 43 754 43 695 q 78 839 43 802 q 208 905 113 876 q 267 922 235 914 q 330 937 299 930 l 330 970 q 307 1068 330 1044 q 229 1093 283 1093 q 167 1083 200 1093 l 149 1021 q 131 983 144 996 q 100 971 118 971 q 57 1007 63 971 q 124 1097 73 1063 q 254 1131 176 1131 q 368 1091 331 1131 q 406 962 406 1052 l 406 745 q 441 681 406 681 q 463 686 454 681 q 485 703 472 691 z "},"«":{"ha":722,"x_min":39,"x_max":681,"o":"m 385 653 l 135 379 l 385 106 l 357 75 l 39 351 l 39 407 l 357 684 l 385 653 m 681 653 l 431 379 l 681 106 l 653 75 l 335 351 l 335 407 l 653 684 l 681 653 z "},"¬":{"ha":796,"x_min":47,"x_max":739,"o":"m 47 589 l 739 589 l 739 252 l 672 252 l 672 526 l 47 526 l 47 589 z "},"®":{"ha":688,"x_min":45,"x_max":643,"o":"m 311 786 l 338 786 q 387 805 371 786 q 403 851 403 824 q 387 894 403 878 q 335 909 371 909 l 311 909 l 311 786 m 443 722 l 461 652 l 498 648 l 498 629 q 479 626 486 627 q 460 625 471 625 q 422 632 433 625 q 407 657 410 638 l 387 725 q 335 764 380 764 l 311 764 l 311 653 l 353 648 l 353 629 l 216 629 l 216 648 l 258 653 l 258 907 l 216 911 l 216 932 l 347 932 q 429 911 400 932 q 457 854 457 890 q 439 806 457 828 q 380 775 421 783 q 443 722 431 766 m 345 515 q 471 548 413 515 q 565 638 530 580 q 600 775 600 696 q 565 910 600 852 q 471 1000 530 968 q 345 1032 413 1032 q 217 1000 276 1032 q 123 910 159 968 q 87 775 87 852 q 123 638 87 696 q 217 548 158 580 q 345 515 275 515 m 345 1069 q 491 1034 423 1069 q 601 932 559 998 q 643 775 643 866 q 601 617 643 684 q 492 514 559 551 q 345 478 424 478 q 196 514 264 478 q 86 617 127 551 q 45 775 45 684 q 86 932 45 866 q 197 1034 128 998 q 345 1069 265 1069 z "},"¯":{"ha":600,"x_min":111,"x_max":489,"o":"m 111 917 l 111 987 l 489 987 l 489 917 l 111 917 z "},"°":{"ha":478,"x_min":57,"x_max":421,"o":"m 239 705 q 332 745 294 705 q 370 846 370 785 q 332 947 370 907 q 239 987 294 987 q 146 947 184 987 q 109 846 109 907 q 146 745 109 785 q 239 705 184 705 m 239 663 q 111 712 165 663 q 57 846 57 762 q 82 943 57 901 q 149 1009 107 985 q 239 1032 190 1032 q 329 1009 288 1032 q 396 943 370 985 q 421 846 421 901 q 396 748 421 789 q 329 685 370 707 q 239 663 288 663 z "},"±":{"ha":1389,"x_min":174,"x_max":1215,"o":"m 724 610 l 724 183 l 665 183 l 665 610 l 174 610 l 174 669 l 665 669 l 665 1095 l 724 1095 l 724 669 l 1215 669 l 1215 610 l 724 610 m 174 14 l 174 74 l 1215 74 l 1215 14 l 174 14 z "},"²":{"ha":536,"x_min":74,"x_max":475,"o":"m 157 722 l 475 722 l 475 646 l 79 646 l 79 703 l 240 861 q 335 981 305 927 q 366 1089 366 1035 q 333 1179 366 1146 q 241 1211 300 1211 q 215 1210 229 1211 q 184 1204 200 1208 l 167 1145 q 146 1099 157 1111 q 117 1088 134 1088 q 74 1114 91 1088 q 141 1218 85 1183 q 268 1253 197 1253 q 404 1207 361 1253 q 447 1096 447 1162 q 407 981 447 1036 q 279 839 367 926 l 157 722 z "},"³":{"ha":536,"x_min":69,"x_max":469,"o":"m 192 1206 l 178 1150 q 127 1099 166 1099 q 87 1128 99 1099 q 151 1222 100 1192 q 268 1253 202 1253 q 397 1212 349 1253 q 446 1107 446 1171 q 412 1014 446 1054 q 322 958 378 974 q 432 907 395 948 q 469 804 469 867 q 440 709 469 747 q 364 651 412 671 q 260 632 316 632 q 132 665 180 632 q 69 760 83 699 q 86 784 75 777 q 111 791 98 791 q 139 780 127 791 q 158 736 151 768 l 175 681 q 239 672 204 672 q 349 708 311 672 q 387 806 387 744 q 350 900 387 866 q 235 933 313 933 l 189 933 l 189 981 l 228 981 q 329 1011 292 981 q 366 1099 366 1042 q 334 1182 366 1153 q 248 1211 302 1211 q 221 1210 235 1211 q 192 1206 208 1208 z "},"´":{"ha":600,"x_min":221,"x_max":473,"o":"m 221 861 q 291 967 255 914 q 359 1071 326 1021 q 396 1114 380 1101 q 428 1126 412 1126 q 459 1115 446 1126 q 473 1080 473 1103 q 463 1050 473 1067 q 425 1008 453 1034 q 338 928 383 971 q 245 840 294 885 l 221 861 z "},"µ":{"ha":856,"x_min":140,"x_max":828,"o":"m 815 74 l 828 47 q 784 0 811 20 q 720 -20 756 -20 q 640 24 663 -20 q 612 161 616 68 q 395 -20 536 -20 q 293 11 343 -20 q 212 98 243 41 l 241 -262 l 154 -283 l 140 -273 l 163 140 l 143 704 l 235 726 l 248 715 q 238 487 242 582 q 230 322 233 393 q 227 187 227 251 q 309 91 264 115 q 406 66 355 66 q 520 104 470 66 q 611 233 570 142 l 606 704 l 696 726 l 708 715 q 696 514 701 599 q 688 369 691 430 q 683 260 684 307 q 682 172 682 214 q 699 79 683 102 q 750 56 715 56 q 785 61 770 56 q 815 74 801 66 z "},"¶":{"ha":1389,"x_min":297,"x_max":1093,"o":"m 1093 993 l 942 981 q 940 769 941 876 q 940 557 940 663 l 940 286 q 941 44 940 165 q 943 -195 941 -77 l 844 -195 q 847 44 846 -77 q 847 286 847 164 l 847 987 l 753 987 l 753 244 q 526 289 629 244 q 359 423 422 334 q 297 642 297 511 q 358 856 297 768 q 530 991 419 944 q 793 1038 642 1038 l 1093 1038 l 1093 993 z "},"·":{"ha":450,"x_min":143,"x_max":309,"o":"m 225 419 q 167 444 191 419 q 143 500 143 468 q 167 558 143 534 q 225 582 191 582 q 284 558 260 582 q 309 500 309 534 q 284 444 309 468 q 225 419 260 419 z "},"¸":{"ha":600,"x_min":165,"x_max":414,"o":"m 283 3 l 271 -90 q 373 -126 332 -96 q 414 -208 414 -156 q 374 -293 414 -259 q 260 -328 335 -328 q 207 -322 231 -328 q 165 -313 184 -317 l 172 -278 q 212 -283 193 -281 q 249 -285 230 -285 q 319 -263 296 -285 q 342 -207 342 -242 q 314 -150 342 -170 q 224 -123 287 -129 l 243 3 l 283 3 z "},"¹":{"ha":536,"x_min":98,"x_max":458,"o":"m 321 697 l 458 681 l 458 646 l 98 646 l 98 681 l 241 699 l 241 1177 l 117 1162 l 117 1203 l 309 1249 l 321 1240 l 321 697 z "},"º":{"ha":553,"x_min":47,"x_max":504,"o":"m 277 1090 q 166 1036 207 1090 q 126 879 126 982 q 166 723 126 776 q 277 671 207 671 q 386 723 346 671 q 425 879 425 776 q 386 1036 425 982 q 277 1090 346 1090 m 277 1131 q 386 1101 334 1131 q 471 1016 438 1072 q 504 879 504 960 q 471 743 504 799 q 387 659 439 688 q 277 631 335 631 q 166 659 218 631 q 80 743 113 688 q 47 879 47 799 q 81 1016 47 960 q 166 1101 114 1072 q 277 1131 219 1131 z "},"»":{"ha":722,"x_min":43,"x_max":684,"o":"m 389 407 l 389 351 l 71 75 l 43 106 l 293 379 l 43 653 l 71 684 l 389 407 m 366 684 l 684 407 l 684 351 l 366 75 l 338 106 l 587 379 l 338 653 l 366 684 z "},"¼":{"ha":1292,"x_min":107,"x_max":1165,"o":"m 465 387 l 107 387 l 107 422 l 249 439 l 249 920 l 125 904 l 125 945 l 315 990 l 329 982 l 329 439 l 465 422 l 465 387 m 1018 1008 l 1054 981 l 347 -36 l 313 -8 l 1018 1008 m 778 231 l 987 231 l 987 519 l 778 231 m 1165 231 l 1165 170 l 1063 170 l 1063 0 l 987 0 l 987 170 l 725 170 l 725 220 l 1011 602 l 1063 602 l 1063 231 l 1165 231 z "},"½":{"ha":1292,"x_min":94,"x_max":1175,"o":"m 453 387 l 94 387 l 94 422 l 237 440 l 237 920 l 113 904 l 113 945 l 302 990 l 317 982 l 317 439 l 453 422 l 453 387 m 970 1008 l 1006 981 l 298 -36 l 264 -8 l 970 1008 m 859 77 l 1175 77 l 1175 0 l 781 0 l 781 57 l 942 216 q 1036 335 1005 281 q 1067 443 1067 389 q 1034 534 1067 500 q 943 567 1002 567 q 888 558 917 567 l 868 498 q 847 454 859 467 q 818 441 835 441 q 775 468 790 441 q 843 572 787 537 q 970 607 899 607 q 1105 561 1062 607 q 1149 450 1149 515 q 1108 336 1149 391 q 981 193 1068 281 l 859 77 z "},"¾":{"ha":1292,"x_min":127,"x_max":1179,"o":"m 250 947 l 236 892 q 186 840 224 840 q 146 869 157 840 q 210 964 158 934 q 328 994 261 994 q 455 954 407 994 q 504 848 504 913 q 471 755 504 795 q 382 700 438 715 q 491 649 454 690 q 529 546 529 608 q 500 451 529 489 q 422 393 471 412 q 318 374 374 374 q 191 407 240 374 q 127 501 141 440 q 144 526 133 519 q 170 533 156 533 q 198 521 186 533 q 216 478 210 509 l 233 422 q 297 414 262 414 q 407 450 369 414 q 446 549 446 486 q 408 642 446 608 q 293 675 371 675 l 248 675 l 248 722 l 286 722 q 387 753 351 722 q 424 840 424 784 q 392 924 424 895 q 307 953 361 953 q 280 951 294 953 q 250 947 266 950 m 1032 1008 l 1068 981 l 359 -36 l 326 -8 l 1032 1008 m 791 231 l 1002 231 l 1002 519 l 791 231 m 1179 231 l 1179 170 l 1076 170 l 1076 0 l 1002 0 l 1002 170 l 739 170 l 739 220 l 1023 602 l 1076 602 l 1076 231 l 1179 231 z "},"¿":{"ha":591,"x_min":86,"x_max":485,"o":"m 376 589 q 322 611 344 589 q 300 665 300 634 q 322 718 300 694 q 376 741 344 741 q 431 718 410 741 q 452 665 452 694 q 431 611 452 634 q 376 589 410 589 m 200 -151 l 400 -182 q 468 -208 450 -191 q 485 -249 485 -226 q 469 -291 485 -276 q 424 -314 453 -306 q 310 -280 369 -304 q 200 -217 251 -256 q 118 -123 149 -178 q 86 3 86 -68 q 121 127 86 78 q 227 205 157 176 l 277 229 q 342 270 328 253 q 357 326 357 288 l 354 428 l 393 428 l 408 368 q 423 306 418 328 q 428 268 428 285 q 403 211 428 235 q 314 158 378 186 l 249 129 q 168 68 191 101 q 144 -17 144 35 q 160 -88 146 -55 q 200 -151 174 -121 z "},"À":{"ha":989,"x_min":12,"x_max":979,"o":"m 571 1116 l 551 1089 q 458 1139 505 1114 q 370 1190 412 1165 q 312 1231 329 1214 q 296 1265 296 1248 q 309 1295 296 1284 q 339 1305 321 1305 q 375 1294 357 1305 q 424 1253 393 1283 q 496 1185 459 1219 q 571 1116 533 1151 m 302 396 l 629 396 l 464 892 l 302 396 m 848 57 l 979 45 l 979 0 l 586 0 l 586 45 l 742 58 l 646 347 l 286 347 l 193 60 l 336 45 l 336 0 l 12 0 l 12 45 l 135 58 l 456 1018 l 522 1018 l 848 57 z "},"Á":{"ha":989,"x_min":12,"x_max":979,"o":"m 414 1089 l 395 1114 q 469 1185 432 1150 q 541 1254 506 1221 q 591 1294 572 1283 q 625 1305 610 1305 q 656 1295 643 1305 q 669 1265 669 1284 q 653 1231 669 1248 q 596 1190 636 1214 q 506 1139 552 1165 q 414 1089 460 1114 m 302 396 l 629 396 l 464 892 l 302 396 m 848 57 l 979 45 l 979 0 l 586 0 l 586 45 l 742 58 l 646 347 l 286 347 l 193 60 l 336 45 l 336 0 l 12 0 l 12 45 l 135 58 l 456 1018 l 522 1018 l 848 57 z "},"Â":{"ha":989,"x_min":12,"x_max":979,"o":"m 489 1178 l 294 1061 l 275 1088 l 469 1260 l 507 1260 l 703 1088 l 684 1061 l 489 1178 m 302 396 l 629 396 l 464 892 l 302 396 m 848 57 l 979 45 l 979 0 l 586 0 l 586 45 l 742 58 l 646 347 l 286 347 l 193 60 l 336 45 l 336 0 l 12 0 l 12 45 l 135 58 l 456 1018 l 522 1018 l 848 57 z "},"Ã":{"ha":989,"x_min":12,"x_max":979,"o":"m 715 1276 l 747 1267 q 699 1143 734 1190 q 599 1096 663 1096 q 528 1113 556 1096 q 478 1152 500 1131 q 426 1198 451 1177 q 368 1219 401 1219 q 303 1188 328 1219 q 261 1101 278 1156 l 228 1112 q 277 1236 240 1190 q 376 1283 314 1283 q 446 1266 418 1283 q 498 1226 475 1249 q 550 1182 526 1202 q 610 1161 574 1161 q 673 1191 648 1161 q 715 1276 698 1221 m 302 396 l 629 396 l 464 892 l 302 396 m 848 57 l 979 45 l 979 0 l 586 0 l 586 45 l 742 58 l 646 347 l 286 347 l 193 60 l 336 45 l 336 0 l 12 0 l 12 45 l 135 58 l 456 1018 l 522 1018 l 848 57 z "},"Ä":{"ha":989,"x_min":12,"x_max":979,"o":"m 647 1125 q 598 1144 619 1125 q 576 1192 576 1162 q 598 1242 576 1222 q 647 1261 619 1261 q 697 1242 675 1261 q 718 1192 718 1222 q 697 1144 718 1162 q 647 1125 675 1125 m 322 1125 q 274 1144 294 1125 q 253 1192 253 1162 q 274 1242 253 1222 q 322 1261 294 1261 q 373 1242 353 1261 q 393 1192 393 1222 q 373 1144 393 1162 q 322 1125 353 1125 m 302 396 l 629 396 l 464 892 l 302 396 m 848 57 l 979 45 l 979 0 l 586 0 l 586 45 l 742 58 l 646 347 l 286 347 l 193 60 l 336 45 l 336 0 l 12 0 l 12 45 l 135 58 l 456 1018 l 522 1018 l 848 57 z "},"Å":{"ha":989,"x_min":12,"x_max":979,"o":"m 488 1305 q 427 1278 450 1305 q 404 1217 404 1251 q 427 1153 404 1181 q 488 1125 450 1125 q 549 1153 526 1125 q 572 1217 572 1181 q 550 1278 572 1251 q 488 1305 527 1305 m 488 1082 q 395 1118 437 1082 q 353 1217 353 1154 q 395 1314 353 1278 q 488 1350 437 1350 q 583 1315 540 1350 q 625 1217 625 1279 q 583 1118 625 1155 q 488 1082 540 1082 m 302 396 l 629 396 l 464 892 l 302 396 m 848 57 l 979 45 l 979 0 l 586 0 l 586 45 l 742 58 l 646 347 l 286 347 l 193 60 l 336 45 l 336 0 l 12 0 l 12 45 l 135 58 l 456 1018 l 522 1018 l 848 57 z "},"Æ":{"ha":1371,"x_min":12,"x_max":1311,"o":"m 676 947 l 401 433 l 690 433 l 690 947 l 676 947 m 1249 254 l 1311 254 l 1300 0 l 546 0 l 546 45 l 689 58 q 690 225 690 142 q 690 385 690 308 l 375 385 l 201 61 l 336 45 l 336 0 l 12 0 l 12 45 l 139 60 l 616 951 l 504 965 l 504 1008 l 1274 1008 l 1283 757 l 1223 757 l 1190 956 l 796 956 q 793 752 793 856 q 793 538 793 648 l 1046 538 l 1064 685 l 1116 685 l 1116 342 l 1064 342 l 1046 488 l 793 488 q 793 263 793 369 q 796 56 793 157 l 1215 56 l 1249 254 z "},"Ç":{"ha":957,"x_min":81,"x_max":885,"o":"m 885 271 l 879 54 q 735 -4 807 12 q 583 -21 663 -21 l 574 -90 q 676 -126 635 -96 q 717 -208 717 -156 q 677 -293 717 -259 q 561 -328 637 -328 q 509 -322 532 -328 q 467 -313 486 -317 l 475 -278 q 513 -283 495 -281 q 551 -285 532 -285 q 621 -263 598 -285 q 644 -207 644 -242 q 616 -150 644 -170 q 525 -123 589 -129 l 542 -20 q 299 58 403 -10 q 138 241 195 126 q 81 504 81 355 q 118 716 81 620 q 223 884 155 813 q 382 993 290 954 q 582 1032 473 1032 q 726 1016 656 1032 q 868 957 796 999 l 872 741 l 806 741 l 774 929 q 686 965 730 954 q 595 977 642 977 q 390 921 480 977 q 249 759 300 865 q 197 504 197 654 q 247 249 197 354 q 385 89 297 144 q 587 33 473 33 q 688 44 639 33 q 786 79 737 54 l 818 271 l 885 271 z "},"È":{"ha":904,"x_min":75,"x_max":846,"o":"m 543 1116 l 524 1089 q 432 1139 478 1114 q 342 1190 387 1165 q 285 1231 302 1214 q 268 1265 268 1248 q 281 1295 268 1284 q 313 1305 295 1305 q 348 1294 329 1305 q 397 1253 366 1283 q 470 1185 433 1219 q 543 1116 507 1151 m 783 254 l 846 254 l 833 0 l 75 0 l 75 45 l 224 58 q 225 261 224 158 q 225 465 225 363 l 225 543 q 225 748 225 646 q 224 951 224 850 l 75 965 l 75 1008 l 808 1008 l 818 757 l 757 757 l 724 956 l 330 956 q 328 752 328 856 q 328 538 328 648 l 579 538 l 597 685 l 648 685 l 648 342 l 597 342 l 579 488 l 328 488 q 328 263 328 369 q 330 56 328 157 l 750 56 l 783 254 z "},"É":{"ha":904,"x_min":75,"x_max":846,"o":"m 427 1089 l 407 1114 q 482 1185 446 1150 q 553 1254 518 1221 q 602 1294 584 1283 q 637 1305 621 1305 q 669 1295 656 1305 q 682 1265 682 1284 q 666 1231 682 1248 q 610 1190 650 1214 q 518 1139 565 1165 q 427 1089 472 1114 m 783 254 l 846 254 l 833 0 l 75 0 l 75 45 l 224 58 q 225 261 224 158 q 225 465 225 363 l 225 543 q 225 748 225 646 q 224 951 224 850 l 75 965 l 75 1008 l 808 1008 l 818 757 l 757 757 l 724 956 l 330 956 q 328 752 328 856 q 328 538 328 648 l 579 538 l 597 685 l 648 685 l 648 342 l 597 342 l 579 488 l 328 488 q 328 263 328 369 q 330 56 328 157 l 750 56 l 783 254 z "},"Ê":{"ha":904,"x_min":75,"x_max":846,"o":"m 509 1194 l 314 1079 l 293 1105 l 488 1276 l 526 1276 l 722 1105 l 701 1079 l 509 1194 m 783 254 l 846 254 l 833 0 l 75 0 l 75 45 l 224 58 q 225 261 224 158 q 225 465 225 363 l 225 543 q 225 748 225 646 q 224 951 224 850 l 75 965 l 75 1008 l 808 1008 l 818 757 l 757 757 l 724 956 l 330 956 q 328 752 328 856 q 328 538 328 648 l 579 538 l 597 685 l 648 685 l 648 342 l 597 342 l 579 488 l 328 488 q 328 263 328 369 q 330 56 328 157 l 750 56 l 783 254 z "},"Ë":{"ha":904,"x_min":75,"x_max":846,"o":"m 654 1125 q 605 1144 625 1125 q 585 1192 585 1162 q 605 1242 585 1222 q 654 1261 625 1261 q 704 1242 682 1261 q 725 1192 725 1222 q 704 1144 725 1162 q 654 1125 682 1125 m 330 1125 q 281 1144 302 1125 q 260 1192 260 1162 q 281 1242 260 1222 q 330 1261 302 1261 q 379 1242 359 1261 q 400 1192 400 1222 q 379 1144 400 1162 q 330 1125 359 1125 m 783 254 l 846 254 l 833 0 l 75 0 l 75 45 l 224 58 q 225 261 224 158 q 225 465 225 363 l 225 543 q 225 748 225 646 q 224 951 224 850 l 75 965 l 75 1008 l 808 1008 l 818 757 l 757 757 l 724 956 l 330 956 q 328 752 328 856 q 328 538 328 648 l 579 538 l 597 685 l 648 685 l 648 342 l 597 342 l 579 488 l 328 488 q 328 263 328 369 q 330 56 328 157 l 750 56 l 783 254 z "},"Ì":{"ha":553,"x_min":75,"x_max":478,"o":"m 363 1116 l 342 1089 q 250 1139 296 1114 q 161 1190 204 1165 q 104 1231 121 1214 q 87 1265 87 1248 q 100 1295 87 1284 q 131 1305 113 1305 q 165 1294 147 1305 q 215 1253 183 1283 q 288 1185 251 1219 q 363 1116 325 1151 m 478 965 l 330 951 q 328 749 328 851 q 328 543 328 647 l 328 465 q 328 262 328 364 q 330 58 328 161 l 478 45 l 478 0 l 75 0 l 75 45 l 224 58 q 225 261 224 158 q 225 465 225 363 l 225 543 q 225 748 225 646 q 224 951 224 850 l 75 965 l 75 1008 l 478 1008 l 478 965 z "},"Í":{"ha":553,"x_min":75,"x_max":484,"o":"m 228 1089 l 208 1114 q 283 1185 245 1150 q 354 1254 320 1221 q 404 1294 385 1283 q 439 1305 423 1305 q 470 1295 456 1305 q 484 1265 484 1284 q 467 1231 484 1248 q 410 1190 450 1214 q 319 1139 365 1165 q 228 1089 273 1114 m 478 1008 l 478 965 l 330 951 q 328 749 328 851 q 328 543 328 647 l 328 465 q 328 262 328 364 q 330 58 328 161 l 478 45 l 478 0 l 75 0 l 75 45 l 224 58 q 225 261 224 158 q 225 465 225 363 l 225 543 q 225 748 225 646 q 224 951 224 850 l 75 965 l 75 1008 l 478 1008 z "},"Î":{"ha":553,"x_min":61,"x_max":490,"o":"m 277 1194 l 82 1079 l 61 1105 l 257 1276 l 296 1276 l 490 1105 l 469 1079 l 277 1194 m 478 1008 l 478 965 l 330 951 q 328 749 328 851 q 328 543 328 647 l 328 465 q 328 262 328 364 q 330 58 328 161 l 478 45 l 478 0 l 75 0 l 75 45 l 224 58 q 225 261 224 158 q 225 465 225 363 l 225 543 q 225 748 225 646 q 224 951 224 850 l 75 965 l 75 1008 l 478 1008 z "},"Ï":{"ha":553,"x_min":43,"x_max":509,"o":"m 184 1192 q 163 1144 184 1162 q 114 1125 142 1125 q 64 1144 85 1125 q 43 1192 43 1162 q 64 1242 43 1222 q 114 1261 85 1261 q 163 1242 142 1261 q 184 1192 184 1222 m 478 1008 l 478 965 l 330 951 q 328 749 328 851 q 328 543 328 647 l 328 465 q 328 262 328 364 q 330 58 328 161 l 478 45 l 478 0 l 75 0 l 75 45 l 224 58 q 225 261 224 158 q 225 465 225 363 l 225 543 q 225 748 225 646 q 224 951 224 850 l 75 965 l 75 1008 l 478 1008 m 439 1261 q 488 1242 467 1261 q 509 1192 509 1222 q 488 1144 509 1162 q 439 1125 467 1125 q 389 1144 410 1125 q 368 1192 368 1162 q 389 1242 368 1222 q 439 1261 410 1261 z "},"Ð":{"ha":1064,"x_min":75,"x_max":983,"o":"m 330 52 l 458 52 q 765 172 661 52 q 868 503 868 292 q 766 842 868 726 q 476 958 665 958 l 330 958 q 328 755 328 859 q 328 543 328 652 l 581 543 l 581 490 l 328 490 q 328 261 328 370 q 330 52 328 153 m 75 1008 l 494 1008 q 753 950 644 1008 q 923 780 863 892 q 983 504 983 667 q 920 233 983 346 q 741 60 856 120 q 471 0 626 0 l 75 0 l 75 45 l 224 58 q 225 264 224 158 q 225 490 225 370 l 75 490 l 75 543 l 225 543 q 225 750 225 648 q 224 951 224 851 l 75 965 l 75 1008 z "},"Ñ":{"ha":1101,"x_min":62,"x_max":1043,"o":"m 779 1268 l 812 1258 q 764 1135 800 1181 q 664 1088 728 1088 q 593 1104 621 1088 q 542 1143 565 1121 q 490 1188 515 1167 q 431 1210 466 1210 q 368 1180 392 1210 q 326 1095 343 1149 l 293 1104 q 342 1227 306 1180 q 441 1275 378 1275 q 512 1258 484 1275 q 562 1219 540 1240 q 614 1173 589 1194 q 672 1152 639 1152 q 737 1182 712 1152 q 779 1268 762 1213 m 1043 1008 l 1043 965 l 913 949 l 911 -11 l 868 -11 l 249 863 l 252 61 l 414 45 l 414 0 l 62 0 l 62 45 l 193 60 l 196 937 l 184 953 l 62 965 l 62 1008 l 271 1008 l 856 178 l 854 949 l 692 965 l 692 1008 l 1043 1008 z "},"Ò":{"ha":1060,"x_min":81,"x_max":981,"o":"m 615 1116 l 596 1089 q 504 1139 550 1114 q 414 1190 458 1165 q 357 1231 373 1214 q 340 1265 340 1248 q 353 1295 340 1284 q 386 1305 366 1305 q 420 1294 401 1305 q 469 1253 438 1283 q 542 1185 505 1219 q 615 1116 579 1151 m 197 504 q 218 327 197 412 q 281 177 239 243 q 385 72 323 111 q 530 33 448 33 q 676 72 614 33 q 781 177 739 111 q 843 327 822 243 q 864 504 864 412 q 843 681 864 596 q 781 832 822 766 q 676 938 739 899 q 530 977 614 977 q 385 938 448 977 q 281 832 323 899 q 218 681 239 766 q 197 504 197 596 m 530 1032 q 701 997 620 1032 q 844 893 781 961 q 944 727 907 825 q 981 504 981 629 q 945 286 981 382 q 846 120 909 189 q 702 15 783 52 q 530 -21 621 -21 q 360 14 441 -21 q 216 117 279 50 q 117 281 153 184 q 81 504 81 379 q 117 724 81 627 q 216 890 153 822 q 360 996 279 959 q 530 1032 441 1032 z "},"Ó":{"ha":1060,"x_min":81,"x_max":981,"o":"m 464 1116 q 538 1186 501 1152 q 610 1254 574 1221 q 659 1294 641 1283 q 693 1305 677 1305 q 726 1295 712 1305 q 739 1265 739 1284 q 723 1231 739 1248 q 665 1192 706 1215 q 574 1140 621 1166 q 484 1089 528 1114 l 464 1116 m 197 504 q 218 327 197 412 q 281 177 239 243 q 385 72 323 111 q 530 33 448 33 q 676 72 614 33 q 781 177 739 111 q 843 327 822 243 q 864 504 864 412 q 843 681 864 596 q 781 832 822 766 q 676 938 739 899 q 530 977 614 977 q 385 938 448 977 q 281 832 323 899 q 218 681 239 766 q 197 504 197 596 m 530 1032 q 701 997 620 1032 q 844 893 781 961 q 944 727 907 825 q 981 504 981 629 q 945 286 981 382 q 846 120 909 189 q 702 15 783 52 q 530 -21 621 -21 q 360 14 441 -21 q 216 117 279 50 q 117 281 153 184 q 81 504 81 379 q 117 724 81 627 q 216 890 153 822 q 360 996 279 959 q 530 1032 441 1032 z "},"Ô":{"ha":1060,"x_min":81,"x_max":981,"o":"m 530 1194 l 338 1079 l 317 1105 l 513 1276 l 551 1276 l 746 1105 l 725 1079 l 530 1194 m 530 33 q 676 72 614 33 q 781 177 739 111 q 843 327 822 243 q 864 504 864 412 q 843 681 864 596 q 781 832 822 766 q 676 938 739 899 q 530 977 614 977 q 385 938 448 977 q 281 832 323 899 q 218 681 239 766 q 197 504 197 596 q 218 327 197 412 q 281 177 239 243 q 385 72 323 111 q 530 33 448 33 m 530 1032 q 701 997 620 1032 q 844 893 781 961 q 944 727 907 825 q 981 504 981 629 q 945 286 981 382 q 846 120 909 189 q 702 15 783 52 q 530 -21 621 -21 q 360 14 441 -21 q 216 117 279 50 q 117 281 153 184 q 81 504 81 379 q 117 724 81 627 q 216 890 153 822 q 360 996 279 959 q 530 1032 441 1032 z "},"Õ":{"ha":1060,"x_min":81,"x_max":981,"o":"m 272 1112 q 321 1236 285 1190 q 421 1283 357 1283 q 491 1266 463 1283 q 542 1227 519 1250 q 593 1182 569 1203 q 652 1161 618 1161 q 716 1191 691 1161 q 758 1276 742 1221 l 791 1267 q 743 1143 779 1191 q 643 1096 707 1096 q 572 1113 600 1096 q 521 1152 544 1131 q 469 1198 494 1177 q 410 1219 445 1219 q 347 1188 371 1219 q 304 1101 322 1156 l 272 1112 m 197 504 q 218 327 197 412 q 281 177 239 243 q 385 72 323 111 q 530 33 448 33 q 676 72 614 33 q 781 177 739 111 q 843 327 822 243 q 864 504 864 412 q 843 681 864 596 q 781 832 822 766 q 676 938 739 899 q 530 977 614 977 q 385 938 448 977 q 281 832 323 899 q 218 681 239 766 q 197 504 197 596 m 530 1032 q 701 997 620 1032 q 844 893 781 961 q 944 727 907 825 q 981 504 981 629 q 945 286 981 382 q 846 120 909 189 q 702 15 783 52 q 530 -21 621 -21 q 360 14 441 -21 q 216 117 279 50 q 117 281 153 184 q 81 504 81 379 q 117 724 81 627 q 216 890 153 822 q 360 996 279 959 q 530 1032 441 1032 z "},"Ö":{"ha":1060,"x_min":81,"x_max":981,"o":"m 370 1125 q 320 1144 341 1125 q 298 1192 298 1162 q 320 1242 298 1222 q 370 1261 341 1261 q 418 1242 397 1261 q 439 1192 439 1222 q 418 1144 439 1162 q 370 1125 397 1125 m 692 1125 q 644 1144 663 1125 q 624 1192 624 1162 q 644 1242 624 1222 q 692 1261 663 1261 q 742 1242 721 1261 q 764 1192 764 1222 q 742 1144 764 1162 q 692 1125 721 1125 m 197 504 q 218 327 197 412 q 281 177 239 243 q 385 72 323 111 q 530 33 448 33 q 676 72 614 33 q 781 177 739 111 q 843 327 822 243 q 864 504 864 412 q 843 681 864 596 q 781 832 822 766 q 676 938 739 899 q 530 977 614 977 q 385 938 448 977 q 281 832 323 899 q 218 681 239 766 q 197 504 197 596 m 530 1032 q 701 997 620 1032 q 844 893 781 961 q 944 727 907 825 q 981 504 981 629 q 945 286 981 382 q 846 120 909 189 q 702 15 783 52 q 530 -21 621 -21 q 360 14 441 -21 q 216 117 279 50 q 117 281 153 184 q 81 504 81 379 q 117 724 81 627 q 216 890 153 822 q 360 996 279 959 q 530 1032 441 1032 z "},"×":{"ha":1389,"x_min":269,"x_max":1120,"o":"m 694 468 l 311 86 l 269 127 l 652 511 l 269 895 l 311 936 l 694 554 l 1078 936 l 1120 895 l 737 511 l 1120 127 l 1078 86 l 694 468 z "},"Ø":{"ha":1060,"x_min":81,"x_max":981,"o":"m 799 800 l 289 164 q 391 69 330 104 q 530 33 452 33 q 676 72 614 33 q 781 177 739 111 q 843 327 822 243 q 864 504 864 412 q 847 661 864 585 q 799 800 831 737 m 258 216 l 766 852 q 666 943 725 909 q 530 977 608 977 q 385 938 448 977 q 281 832 323 899 q 218 681 239 766 q 197 504 197 596 q 213 352 197 426 q 258 216 228 278 m 962 1004 l 860 876 q 948 715 915 808 q 981 504 981 622 q 945 286 981 382 q 846 120 909 189 q 702 15 783 52 q 530 -21 621 -21 q 372 9 448 -21 q 236 97 296 39 l 135 -29 l 90 7 l 196 139 q 112 297 142 205 q 81 504 81 389 q 117 724 81 627 q 216 890 153 822 q 360 996 279 959 q 530 1032 441 1032 q 685 1003 611 1032 q 819 918 759 975 l 917 1040 l 962 1004 z "},"Ù":{"ha":1097,"x_min":66,"x_max":1039,"o":"m 629 1107 l 611 1080 q 518 1131 564 1105 q 428 1182 471 1157 q 371 1222 388 1205 q 354 1257 354 1238 q 368 1286 354 1275 q 400 1297 381 1297 q 434 1285 416 1297 q 484 1244 452 1274 q 556 1176 519 1211 q 629 1107 593 1141 m 1039 1008 l 1039 965 l 905 949 l 904 395 q 811 79 904 179 q 555 -21 718 -21 q 368 20 448 -21 q 245 149 289 61 q 201 378 201 237 l 201 541 q 201 747 201 644 q 199 953 201 850 l 66 965 l 66 1008 l 463 1008 l 463 965 l 306 950 q 303 747 303 850 q 302 541 302 644 l 302 407 q 335 200 302 277 q 428 89 368 123 q 570 56 488 56 q 780 142 712 56 q 848 432 848 228 l 848 947 l 681 965 l 681 1008 l 1039 1008 z "},"Ú":{"ha":1097,"x_min":66,"x_max":1039,"o":"m 517 1080 l 497 1107 q 571 1177 534 1142 q 643 1244 608 1212 q 692 1285 674 1274 q 726 1297 711 1297 q 759 1286 746 1297 q 772 1257 772 1275 q 756 1222 772 1238 q 700 1183 740 1205 q 609 1131 655 1157 q 517 1080 562 1105 m 1039 1008 l 1039 965 l 905 949 l 904 395 q 811 79 904 179 q 555 -21 718 -21 q 368 20 448 -21 q 245 149 289 61 q 201 378 201 237 l 201 541 q 201 747 201 644 q 199 953 201 850 l 66 965 l 66 1008 l 463 1008 l 463 965 l 306 950 q 303 747 303 850 q 302 541 302 644 l 302 407 q 335 200 302 277 q 428 89 368 123 q 570 56 488 56 q 780 142 712 56 q 848 432 848 228 l 848 947 l 681 965 l 681 1008 l 1039 1008 z "},"Û":{"ha":1097,"x_min":66,"x_max":1039,"o":"m 574 1186 l 379 1071 l 358 1096 l 554 1268 l 593 1268 l 789 1096 l 766 1071 l 574 1186 m 1039 1008 l 1039 965 l 905 949 l 904 395 q 811 79 904 179 q 555 -21 718 -21 q 368 20 448 -21 q 245 149 289 61 q 201 378 201 237 l 201 541 q 201 747 201 644 q 199 953 201 850 l 66 965 l 66 1008 l 463 1008 l 463 965 l 306 950 q 303 747 303 850 q 302 541 302 644 l 302 407 q 335 200 302 277 q 428 89 368 123 q 570 56 488 56 q 780 142 712 56 q 848 432 848 228 l 848 947 l 681 965 l 681 1008 l 1039 1008 z "},"Ü":{"ha":1097,"x_min":66,"x_max":1039,"o":"m 743 1125 q 694 1144 715 1125 q 673 1192 673 1162 q 694 1242 673 1222 q 743 1261 715 1261 q 792 1242 771 1261 q 814 1192 814 1222 q 792 1144 814 1162 q 743 1125 771 1125 m 421 1125 q 370 1144 392 1125 q 349 1192 349 1162 q 370 1242 349 1222 q 421 1261 392 1261 q 469 1242 449 1261 q 489 1192 489 1222 q 469 1144 489 1162 q 421 1125 449 1125 m 1039 1008 l 1039 965 l 905 949 l 904 395 q 811 79 904 179 q 555 -21 718 -21 q 368 20 448 -21 q 245 149 289 61 q 201 378 201 237 l 201 541 q 201 747 201 644 q 199 953 201 850 l 66 965 l 66 1008 l 463 1008 l 463 965 l 306 950 q 303 747 303 850 q 302 541 302 644 l 302 407 q 335 200 302 277 q 428 89 368 123 q 570 56 488 56 q 780 142 712 56 q 848 432 848 228 l 848 947 l 681 965 l 681 1008 l 1039 1008 z "},"Ý":{"ha":951,"x_min":32,"x_max":928,"o":"m 453 1107 l 599 1244 q 649 1285 631 1274 q 684 1297 668 1297 q 714 1286 701 1297 q 728 1257 728 1275 q 711 1222 728 1238 q 654 1183 695 1205 q 564 1131 610 1157 q 473 1080 518 1105 l 453 1107 m 799 949 l 529 403 q 529 211 529 288 q 530 58 530 134 l 693 45 l 693 0 l 261 0 l 261 45 l 424 58 q 426 209 426 134 q 427 397 427 285 l 150 953 l 32 965 l 32 1008 l 419 1008 l 419 965 l 267 950 l 501 458 l 737 949 l 589 965 l 589 1008 l 928 1008 l 928 965 l 799 949 z "},"Þ":{"ha":905,"x_min":75,"x_max":854,"o":"m 465 757 l 328 757 q 328 652 328 705 q 328 546 328 599 l 328 465 l 328 296 l 467 296 q 682 359 614 296 q 749 530 749 423 q 682 697 749 638 q 465 757 614 757 m 453 244 l 328 244 q 328 151 328 197 q 329 60 329 104 l 485 45 l 485 0 l 75 0 l 75 45 l 224 58 q 225 261 224 158 q 225 465 225 363 l 225 543 q 225 748 225 646 q 224 951 224 850 l 75 965 l 75 1008 l 485 1008 l 485 965 l 329 950 q 329 879 329 915 q 328 808 329 844 l 476 808 q 763 729 672 808 q 854 525 854 650 q 819 388 854 452 q 695 284 783 323 q 453 244 608 244 z "},"ß":{"ha":875,"x_min":41,"x_max":828,"o":"m 178 315 l 178 654 q 253 987 178 888 q 366 1095 298 1059 q 518 1131 435 1131 q 688 1077 625 1131 q 750 937 750 1023 q 715 826 750 876 q 619 725 680 776 q 526 562 526 644 q 555 483 526 513 q 646 415 583 453 q 757 337 718 373 q 812 264 796 300 q 828 184 828 228 q 768 36 828 92 q 589 -20 709 -20 q 486 -8 536 -20 q 387 22 437 3 l 385 193 l 435 193 l 469 53 q 529 35 500 40 q 587 31 557 31 q 703 68 667 31 q 739 167 739 105 q 711 248 739 210 q 597 335 684 287 q 487 418 530 374 q 444 534 444 463 q 474 644 444 595 q 555 737 505 692 q 635 827 609 785 q 661 924 661 869 q 625 1036 661 992 q 503 1079 588 1079 q 319 975 374 1079 q 289 906 300 944 q 273 810 278 867 q 268 664 268 753 l 268 315 q 270 158 268 236 q 275 0 273 79 l 41 0 l 41 40 l 174 56 q 178 315 178 184 z "},"à":{"ha":762,"x_min":75,"x_max":745,"o":"m 460 861 l 432 840 q 341 928 385 885 q 256 1008 296 971 q 217 1050 227 1034 q 207 1080 207 1067 q 220 1115 207 1103 q 252 1126 234 1126 q 283 1114 267 1126 q 319 1071 300 1101 q 388 967 353 1021 q 460 861 423 914 m 505 160 l 505 399 q 415 374 460 388 q 335 349 369 361 q 204 267 238 310 q 171 178 171 224 q 208 83 171 114 q 304 53 245 53 q 396 77 353 53 q 505 160 439 100 m 722 72 l 745 47 q 692 -2 720 13 q 631 -17 664 -17 q 546 18 577 -17 q 509 113 515 52 q 391 13 443 45 q 268 -20 340 -20 q 132 27 188 -20 q 75 163 75 73 q 127 288 75 235 q 314 389 178 342 q 408 417 357 404 q 505 440 458 430 l 505 486 q 489 606 505 564 q 437 665 472 648 q 349 681 403 681 q 239 659 296 681 l 210 558 q 149 503 195 503 q 94 550 99 503 q 190 682 117 635 q 370 729 262 729 q 541 673 484 729 q 597 486 597 617 l 597 155 q 614 65 597 90 q 661 40 630 40 q 722 72 690 40 z "},"á":{"ha":762,"x_min":75,"x_max":745,"o":"m 322 861 l 463 1071 q 498 1114 482 1101 q 530 1126 514 1126 q 562 1115 548 1126 q 575 1080 575 1103 q 565 1050 575 1067 q 526 1008 555 1034 q 440 928 485 971 q 349 840 395 885 l 322 861 m 505 160 l 505 399 q 415 374 460 388 q 335 349 369 361 q 204 267 238 310 q 171 178 171 224 q 208 83 171 114 q 304 53 245 53 q 396 77 353 53 q 505 160 439 100 m 722 72 l 745 47 q 692 -2 720 13 q 631 -17 664 -17 q 546 18 577 -17 q 509 113 515 52 q 391 13 443 45 q 268 -20 340 -20 q 132 27 188 -20 q 75 163 75 73 q 127 288 75 235 q 314 389 178 342 q 408 417 357 404 q 505 440 458 430 l 505 486 q 489 606 505 564 q 437 665 472 648 q 349 681 403 681 q 239 659 296 681 l 210 558 q 149 503 195 503 q 94 550 99 503 q 190 682 117 635 q 370 729 262 729 q 541 673 484 729 q 597 486 597 617 l 597 155 q 614 65 597 90 q 661 40 630 40 q 722 72 690 40 z "},"â":{"ha":762,"x_min":75,"x_max":745,"o":"m 372 1002 l 192 827 l 168 848 l 353 1100 l 392 1100 l 576 848 l 553 827 l 372 1002 m 505 160 l 505 399 q 415 374 460 388 q 335 349 369 361 q 204 267 238 310 q 171 178 171 224 q 208 83 171 114 q 304 53 245 53 q 396 77 353 53 q 505 160 439 100 m 722 72 l 745 47 q 692 -2 720 13 q 631 -17 664 -17 q 546 18 577 -17 q 509 113 515 52 q 391 13 443 45 q 268 -20 340 -20 q 132 27 188 -20 q 75 163 75 73 q 127 288 75 235 q 314 389 178 342 q 408 417 357 404 q 505 440 458 430 l 505 486 q 489 606 505 564 q 437 665 472 648 q 349 681 403 681 q 239 659 296 681 l 210 558 q 149 503 195 503 q 94 550 99 503 q 190 682 117 635 q 370 729 262 729 q 541 673 484 729 q 597 486 597 617 l 597 155 q 614 65 597 90 q 661 40 630 40 q 722 72 690 40 z "},"ã":{"ha":762,"x_min":75,"x_max":745,"o":"m 570 1053 l 599 1042 q 555 918 588 966 q 464 871 522 871 q 400 888 425 871 q 354 926 375 905 q 309 973 330 951 q 256 994 287 994 q 198 964 220 994 q 161 878 176 933 l 131 888 q 175 1011 142 964 q 265 1059 208 1059 q 328 1042 302 1059 q 375 1003 354 1025 q 421 956 399 978 q 475 935 443 935 q 532 966 509 935 q 570 1053 555 998 m 505 160 l 505 399 q 415 374 460 388 q 335 349 369 361 q 204 267 238 310 q 171 178 171 224 q 208 83 171 114 q 304 53 245 53 q 396 77 353 53 q 505 160 439 100 m 722 72 l 745 47 q 692 -2 720 13 q 631 -17 664 -17 q 546 18 577 -17 q 509 113 515 52 q 391 13 443 45 q 268 -20 340 -20 q 132 27 188 -20 q 75 163 75 73 q 127 288 75 235 q 314 389 178 342 q 408 417 357 404 q 505 440 458 430 l 505 486 q 489 606 505 564 q 437 665 472 648 q 349 681 403 681 q 239 659 296 681 l 210 558 q 149 503 195 503 q 94 550 99 503 q 190 682 117 635 q 370 729 262 729 q 541 673 484 729 q 597 486 597 617 l 597 155 q 614 65 597 90 q 661 40 630 40 q 722 72 690 40 z "},"ä":{"ha":762,"x_min":75,"x_max":745,"o":"m 521 925 q 472 944 493 925 q 450 994 450 962 q 472 1042 450 1023 q 521 1061 493 1061 q 571 1042 550 1061 q 591 994 591 1023 q 571 944 591 962 q 521 925 550 925 m 221 925 q 171 944 192 925 q 150 994 150 962 q 171 1042 150 1023 q 221 1061 192 1061 q 270 1042 249 1061 q 292 994 292 1023 q 270 944 292 962 q 221 925 249 925 m 505 160 l 505 399 q 415 374 460 388 q 335 349 369 361 q 204 267 238 310 q 171 178 171 224 q 208 83 171 114 q 304 53 245 53 q 396 77 353 53 q 505 160 439 100 m 722 72 l 745 47 q 692 -2 720 13 q 631 -17 664 -17 q 546 18 577 -17 q 509 113 515 52 q 391 13 443 45 q 268 -20 340 -20 q 132 27 188 -20 q 75 163 75 73 q 127 288 75 235 q 314 389 178 342 q 408 417 357 404 q 505 440 458 430 l 505 486 q 489 606 505 564 q 437 665 472 648 q 349 681 403 681 q 239 659 296 681 l 210 558 q 149 503 195 503 q 94 550 99 503 q 190 682 117 635 q 370 729 262 729 q 541 673 484 729 q 597 486 597 617 l 597 155 q 614 65 597 90 q 661 40 630 40 q 722 72 690 40 z "},"å":{"ha":762,"x_min":75,"x_max":745,"o":"m 379 1078 q 313 1048 336 1078 q 289 982 289 1019 q 313 913 289 943 q 379 884 336 884 q 447 913 423 884 q 471 982 471 943 q 447 1048 471 1019 q 379 1078 423 1078 m 379 838 q 279 876 323 838 q 235 982 235 913 q 279 1086 235 1048 q 379 1125 323 1125 q 481 1087 437 1125 q 525 982 525 1050 q 481 876 525 914 q 379 838 437 838 m 505 160 l 505 399 q 415 374 460 388 q 335 349 369 361 q 204 267 238 310 q 171 178 171 224 q 208 83 171 114 q 304 53 245 53 q 396 77 353 53 q 505 160 439 100 m 722 72 l 745 47 q 692 -2 720 13 q 631 -17 664 -17 q 546 18 577 -17 q 509 113 515 52 q 391 13 443 45 q 268 -20 340 -20 q 132 27 188 -20 q 75 163 75 73 q 127 288 75 235 q 314 389 178 342 q 408 417 357 404 q 505 440 458 430 l 505 486 q 489 606 505 564 q 437 665 472 648 q 349 681 403 681 q 239 659 296 681 l 210 558 q 149 503 195 503 q 94 550 99 503 q 190 682 117 635 q 370 729 262 729 q 541 673 484 729 q 597 486 597 617 l 597 155 q 614 65 597 90 q 661 40 630 40 q 722 72 690 40 z "},"æ":{"ha":1181,"x_min":75,"x_max":1109,"o":"m 310 53 q 370 62 340 53 q 437 98 399 72 q 532 175 475 124 q 500 353 500 250 q 501 375 500 364 q 503 397 502 387 q 413 372 458 386 q 335 346 368 358 q 204 267 238 309 q 171 179 171 225 q 209 86 171 119 q 310 53 248 53 m 600 410 l 953 410 q 1005 429 991 410 q 1018 484 1018 449 q 995 579 1018 534 q 929 653 972 625 q 829 681 887 681 q 724 650 773 681 q 641 558 674 618 q 600 410 608 498 m 1100 364 l 599 364 q 633 188 599 258 q 727 84 668 119 q 861 50 787 50 q 986 78 934 50 q 1080 153 1039 105 l 1107 134 q 995 21 1065 62 q 832 -20 924 -20 q 667 20 741 -20 q 549 139 592 60 q 443 41 488 76 q 357 -6 397 7 q 272 -20 317 -20 q 132 27 189 -20 q 75 164 75 73 q 127 288 75 236 q 314 386 178 339 q 408 415 357 401 q 505 439 458 429 l 505 486 q 488 606 505 564 q 436 665 471 648 q 351 681 402 681 q 296 676 323 681 q 240 660 269 671 l 214 553 q 150 500 199 500 q 94 549 99 500 q 190 682 117 634 q 370 729 262 729 q 507 696 452 729 q 582 589 562 663 q 693 693 628 656 q 833 729 758 729 q 978 693 916 729 q 1075 594 1040 658 q 1109 446 1109 530 q 1100 364 1109 393 z "},"ç":{"ha":733,"x_min":69,"x_max":672,"o":"m 647 160 l 672 146 q 575 27 638 71 q 419 -20 511 -16 l 410 -90 q 512 -126 471 -96 q 553 -208 553 -156 q 513 -293 553 -259 q 397 -328 473 -328 q 346 -322 368 -328 q 302 -313 323 -317 l 311 -278 q 350 -283 331 -281 q 387 -285 369 -285 q 458 -263 435 -285 q 481 -207 481 -242 q 453 -150 481 -170 q 363 -123 425 -129 l 379 -18 q 216 35 286 -12 q 108 164 146 83 q 69 354 69 245 q 118 556 69 472 q 246 685 168 640 q 414 729 325 729 q 577 681 507 729 q 669 550 648 632 q 615 504 661 504 q 572 518 587 504 q 551 558 557 533 l 519 660 q 468 676 494 671 q 418 681 442 681 q 289 642 345 681 q 199 532 232 604 q 167 364 167 461 q 200 196 167 266 q 293 88 234 125 q 428 50 352 50 q 550 78 494 50 q 647 160 606 106 z "},"è":{"ha":754,"x_min":72,"x_max":682,"o":"m 461 861 l 433 840 q 342 928 387 885 q 257 1008 298 971 q 218 1050 229 1034 q 208 1080 208 1067 q 222 1115 208 1103 q 253 1126 235 1126 q 285 1114 269 1126 q 321 1071 301 1101 q 389 967 354 1021 q 461 861 425 914 m 172 411 l 525 410 q 577 429 564 410 q 590 484 590 449 q 567 579 590 534 q 502 653 544 625 q 401 681 459 681 q 295 649 345 681 q 212 557 245 618 q 172 411 179 497 m 672 364 l 171 364 q 207 187 172 256 q 300 84 242 117 q 432 50 359 50 q 558 78 506 50 q 653 153 611 105 l 679 134 q 567 21 637 62 q 407 -20 496 -20 q 237 23 313 -20 q 116 148 161 65 q 72 353 72 231 q 118 552 72 467 q 241 683 165 636 q 407 729 317 729 q 551 693 489 729 q 648 594 613 658 q 682 447 682 530 q 672 364 682 393 z "},"é":{"ha":754,"x_min":72,"x_max":682,"o":"m 363 840 l 336 861 q 407 967 372 914 q 476 1071 442 1021 q 512 1114 496 1101 q 543 1126 528 1126 q 575 1115 562 1126 q 589 1080 589 1103 q 578 1050 589 1067 q 541 1008 568 1034 q 454 928 498 971 q 363 840 410 885 m 172 411 l 525 410 q 577 429 564 410 q 590 484 590 449 q 567 579 590 534 q 502 653 544 625 q 401 681 459 681 q 295 649 345 681 q 212 557 245 618 q 172 411 179 497 m 672 364 l 171 364 q 207 187 172 256 q 300 84 242 117 q 432 50 359 50 q 558 78 506 50 q 653 153 611 105 l 679 134 q 567 21 637 62 q 407 -20 496 -20 q 237 23 313 -20 q 116 148 161 65 q 72 353 72 231 q 118 552 72 467 q 241 683 165 636 q 407 729 317 729 q 551 693 489 729 q 648 594 613 658 q 682 447 682 530 q 672 364 682 393 z "},"ê":{"ha":754,"x_min":72,"x_max":682,"o":"m 406 1002 l 225 827 l 201 848 l 386 1100 l 425 1100 l 610 848 l 586 827 l 406 1002 m 172 411 l 525 410 q 577 429 564 410 q 590 484 590 449 q 567 579 590 534 q 502 653 544 625 q 401 681 459 681 q 295 649 345 681 q 212 557 245 618 q 172 411 179 497 m 672 364 l 171 364 q 207 187 172 256 q 300 84 242 117 q 432 50 359 50 q 558 78 506 50 q 653 153 611 105 l 679 134 q 567 21 637 62 q 407 -20 496 -20 q 237 23 313 -20 q 116 148 161 65 q 72 353 72 231 q 118 552 72 467 q 241 683 165 636 q 407 729 317 729 q 551 693 489 729 q 648 594 613 658 q 682 447 682 530 q 672 364 682 393 z "},"ë":{"ha":754,"x_min":72,"x_max":682,"o":"m 553 925 q 504 944 525 925 q 482 994 482 962 q 504 1042 482 1023 q 553 1061 525 1061 q 603 1042 582 1061 q 624 994 624 1023 q 603 944 624 962 q 553 925 582 925 m 253 925 q 203 944 224 925 q 182 994 182 962 q 203 1042 182 1023 q 253 1061 224 1061 q 301 1042 281 1061 q 322 994 322 1023 q 301 944 322 962 q 253 925 281 925 m 172 411 l 525 410 q 577 429 564 410 q 590 484 590 449 q 567 579 590 534 q 502 653 544 625 q 401 681 459 681 q 295 649 345 681 q 212 557 245 618 q 172 411 179 497 m 672 364 l 171 364 q 207 187 172 256 q 300 84 242 117 q 432 50 359 50 q 558 78 506 50 q 653 153 611 105 l 679 134 q 567 21 637 62 q 407 -20 496 -20 q 237 23 313 -20 q 116 148 161 65 q 72 353 72 231 q 118 552 72 467 q 241 683 165 636 q 407 729 317 729 q 551 693 489 729 q 648 594 613 658 q 682 447 682 530 q 672 364 682 393 z "},"ì":{"ha":450,"x_min":24,"x_max":390,"o":"m 277 861 l 249 840 q 157 928 201 885 q 72 1008 113 971 q 34 1050 44 1034 q 24 1080 24 1067 q 37 1115 24 1103 q 68 1126 50 1126 q 100 1114 83 1126 q 136 1071 117 1101 q 205 967 170 1021 q 277 861 240 914 m 279 56 l 390 40 l 390 0 l 60 0 l 60 40 l 182 56 q 184 187 183 113 q 184 315 184 261 l 184 392 q 183 514 184 460 q 180 616 182 568 l 53 627 l 53 667 l 262 726 l 281 713 l 277 522 l 277 315 q 277 187 277 261 q 279 56 278 113 z "},"í":{"ha":450,"x_min":53,"x_max":437,"o":"m 277 522 l 277 315 q 277 187 277 261 q 279 56 278 113 l 390 40 l 390 0 l 60 0 l 60 40 l 182 56 q 184 187 183 113 q 184 315 184 261 l 184 392 q 183 514 184 460 q 180 616 182 568 l 53 627 l 53 667 l 262 726 l 281 713 l 277 522 m 210 840 l 184 861 q 255 967 219 914 q 323 1071 290 1021 q 360 1114 345 1101 q 392 1126 376 1126 q 424 1115 410 1126 q 437 1080 437 1103 q 427 1050 437 1067 q 389 1008 417 1034 q 302 928 347 971 q 210 840 258 885 z "},"î":{"ha":450,"x_min":16,"x_max":424,"o":"m 277 522 l 277 315 q 277 187 277 261 q 279 56 278 113 l 390 40 l 390 0 l 60 0 l 60 40 l 182 56 q 184 187 183 113 q 184 315 184 261 l 184 392 q 183 514 184 460 q 180 616 182 568 l 53 627 l 53 667 l 262 726 l 281 713 l 277 522 m 239 1100 l 424 848 l 400 827 l 220 1002 l 39 827 l 16 848 l 200 1100 l 239 1100 z "},"ï":{"ha":450,"x_min":-7,"x_max":433,"o":"m 134 994 q 112 944 134 962 q 62 925 91 925 q 13 944 33 925 q -7 994 -7 962 q 13 1042 -7 1023 q 62 1061 33 1061 q 112 1042 91 1061 q 134 994 134 1023 m 277 522 l 277 315 q 277 187 277 261 q 279 56 278 113 l 390 40 l 390 0 l 60 0 l 60 40 l 182 56 q 184 187 183 113 q 184 315 184 261 l 184 392 q 183 514 184 460 q 180 616 182 568 l 53 627 l 53 667 l 262 726 l 281 713 l 277 522 m 364 1061 q 413 1042 393 1061 q 433 994 433 1023 q 413 944 433 962 q 364 925 393 925 q 314 944 336 925 q 293 994 293 962 q 314 1042 293 1023 q 364 1061 336 1061 z "},"ð":{"ha":817,"x_min":72,"x_max":736,"o":"m 404 31 q 575 118 515 31 q 635 349 635 206 q 569 583 635 505 q 404 661 503 661 q 237 578 299 661 q 175 345 175 496 q 238 114 175 197 q 404 31 301 31 m 736 1060 l 518 947 q 679 709 623 843 q 734 410 734 575 q 643 94 734 208 q 396 -20 552 -20 q 235 23 309 -20 q 117 149 161 66 q 72 349 72 231 q 118 543 72 463 q 238 667 163 624 q 400 710 313 710 q 533 677 474 710 q 628 582 591 644 q 567 764 607 682 q 460 918 528 846 l 239 804 l 218 846 l 425 951 q 335 1024 385 989 q 227 1093 286 1059 l 249 1131 q 482 981 382 1066 l 717 1101 l 736 1060 z "},"ñ":{"ha":908,"x_min":54,"x_max":859,"o":"m 657 1053 l 688 1042 q 644 918 676 966 q 553 871 611 871 q 488 888 514 871 q 443 926 463 905 q 397 973 419 951 q 345 994 376 994 q 286 964 309 994 q 249 878 263 933 l 220 888 q 264 1011 231 964 q 354 1059 297 1059 q 417 1042 392 1059 q 464 1003 442 1025 q 509 956 488 978 q 562 935 531 935 q 620 966 598 935 q 657 1053 642 998 m 747 56 l 859 40 l 859 0 l 529 0 l 529 40 l 650 56 q 652 186 651 113 q 653 315 653 259 l 653 460 q 619 611 653 568 q 518 653 585 653 q 409 627 468 653 q 278 532 350 602 l 278 315 q 279 187 278 261 q 281 56 279 113 l 392 40 l 392 0 l 61 0 l 61 40 l 183 56 q 185 187 184 113 q 186 315 186 261 l 186 390 q 185 513 186 459 q 182 616 184 567 l 54 625 l 54 665 l 248 726 l 265 713 l 275 582 q 414 691 340 654 q 557 729 488 729 q 696 668 648 729 q 745 463 745 606 l 745 315 q 745 186 745 259 q 747 56 746 113 z "},"ò":{"ha":817,"x_min":72,"x_max":746,"o":"m 408 -20 q 247 21 323 -20 q 121 144 170 61 q 72 353 72 227 q 121 562 72 479 q 247 687 170 646 q 408 729 324 729 q 570 687 492 729 q 696 562 647 646 q 746 353 746 479 q 696 144 746 227 q 570 21 647 61 q 408 -20 492 -20 m 408 31 q 580 114 517 31 q 643 353 643 197 q 580 594 643 508 q 408 681 517 681 q 237 594 299 681 q 175 353 175 508 q 237 114 175 197 q 408 31 299 31 m 478 861 l 450 840 q 358 928 403 885 q 273 1008 314 971 q 235 1050 245 1034 q 225 1080 225 1067 q 238 1115 225 1103 q 268 1126 252 1126 q 301 1114 285 1126 q 338 1071 317 1101 q 406 967 371 1021 q 478 861 441 914 z "},"ó":{"ha":817,"x_min":72,"x_max":746,"o":"m 408 -20 q 247 21 323 -20 q 121 144 170 61 q 72 353 72 227 q 121 562 72 479 q 247 687 170 646 q 408 729 324 729 q 570 687 492 729 q 696 562 647 646 q 746 353 746 479 q 696 144 746 227 q 570 21 647 61 q 408 -20 492 -20 m 408 31 q 580 114 517 31 q 643 353 643 197 q 580 594 643 508 q 408 681 517 681 q 237 594 299 681 q 175 353 175 508 q 237 114 175 197 q 408 31 299 31 m 349 861 q 419 967 383 914 q 488 1071 454 1021 q 524 1114 509 1101 q 555 1126 540 1126 q 587 1115 573 1126 q 600 1080 600 1103 q 591 1050 600 1067 q 553 1008 581 1034 q 467 928 511 971 q 374 840 422 885 l 349 861 z "},"ô":{"ha":817,"x_min":72,"x_max":746,"o":"m 408 1002 l 228 827 l 204 848 l 389 1100 l 428 1100 l 612 848 l 589 827 l 408 1002 m 408 31 q 580 114 517 31 q 643 353 643 197 q 580 594 643 508 q 408 681 517 681 q 237 594 299 681 q 175 353 175 508 q 237 114 175 197 q 408 31 299 31 m 408 729 q 570 687 492 729 q 696 562 647 646 q 746 353 746 479 q 696 144 746 227 q 570 21 647 61 q 408 -20 492 -20 q 247 21 323 -20 q 121 144 170 61 q 72 353 72 227 q 121 562 72 479 q 247 687 170 646 q 408 729 324 729 z "},"õ":{"ha":817,"x_min":72,"x_max":746,"o":"m 408 -20 q 247 21 323 -20 q 121 144 170 61 q 72 353 72 227 q 121 562 72 479 q 247 687 170 646 q 408 729 324 729 q 570 687 492 729 q 696 562 647 646 q 746 353 746 479 q 696 144 746 227 q 570 21 647 61 q 408 -20 492 -20 m 408 31 q 580 114 517 31 q 643 353 643 197 q 580 594 643 508 q 408 681 517 681 q 237 594 299 681 q 175 353 175 508 q 237 114 175 197 q 408 31 299 31 m 174 888 q 219 1011 185 964 q 310 1059 252 1059 q 372 1042 346 1059 q 419 1003 397 1025 q 465 956 442 978 q 518 935 487 935 q 575 966 553 935 q 612 1053 598 998 l 643 1042 q 599 918 631 966 q 507 871 566 871 q 444 888 469 871 q 397 926 418 905 q 352 973 374 951 q 298 994 330 994 q 242 964 264 994 q 204 878 219 933 l 174 888 z "},"ö":{"ha":817,"x_min":72,"x_max":746,"o":"m 408 -20 q 247 21 323 -20 q 121 144 170 61 q 72 353 72 227 q 121 562 72 479 q 247 687 170 646 q 408 729 324 729 q 570 687 492 729 q 696 562 647 646 q 746 353 746 479 q 696 144 746 227 q 570 21 647 61 q 408 -20 492 -20 m 408 31 q 580 114 517 31 q 643 353 643 197 q 580 594 643 508 q 408 681 517 681 q 237 594 299 681 q 175 353 175 508 q 237 114 175 197 q 408 31 299 31 m 558 925 q 509 944 530 925 q 488 994 488 962 q 509 1042 488 1023 q 558 1061 530 1061 q 608 1042 587 1061 q 629 994 629 1023 q 608 944 629 962 q 558 925 587 925 m 258 925 q 208 944 229 925 q 187 994 187 962 q 208 1042 187 1023 q 258 1061 229 1061 q 308 1042 286 1061 q 329 994 329 1023 q 308 944 329 962 q 258 925 286 925 z "},"÷":{"ha":1389,"x_min":167,"x_max":1222,"o":"m 694 799 q 628 825 655 799 q 602 892 602 852 q 628 958 602 931 q 694 985 655 985 q 761 958 734 985 q 787 892 787 931 q 761 825 787 852 q 694 799 734 799 m 1222 541 l 1222 482 l 167 482 l 167 541 l 1222 541 m 694 37 q 628 64 655 37 q 602 131 602 91 q 628 197 602 170 q 694 224 655 224 q 761 197 734 224 q 787 131 787 170 q 761 64 787 91 q 694 37 734 37 z "},"ø":{"ha":817,"x_min":72,"x_max":746,"o":"m 599 562 l 237 113 q 408 31 298 31 q 580 114 517 31 q 643 353 643 197 q 599 562 643 482 m 211 157 l 572 604 q 408 681 511 681 q 237 594 299 681 q 175 353 175 508 q 211 157 175 235 m 725 720 l 650 625 q 719 510 692 578 q 746 353 746 442 q 696 144 746 227 q 570 21 647 61 q 408 -20 492 -20 q 294 -1 350 -20 q 193 57 238 18 l 119 -33 l 82 -3 l 158 92 q 95 202 119 138 q 72 353 72 267 q 121 562 72 479 q 247 687 170 646 q 408 729 324 729 q 517 711 464 729 q 615 657 570 693 l 688 747 l 725 720 z "},"ù":{"ha":889,"x_min":47,"x_max":828,"o":"m 489 861 l 463 840 q 371 928 416 885 q 285 1008 326 971 q 247 1050 256 1034 q 237 1080 237 1067 q 251 1115 237 1103 q 281 1126 264 1126 q 313 1114 296 1126 q 350 1071 329 1101 q 418 967 382 1021 q 489 861 454 914 m 718 56 l 828 40 l 828 0 l 636 -11 l 628 129 q 503 20 572 60 q 357 -20 434 -20 q 210 41 261 -20 q 160 256 159 102 l 164 644 l 47 661 l 47 701 l 244 718 l 258 701 l 252 493 l 252 264 q 288 104 252 149 q 393 58 323 58 q 627 179 516 58 l 629 644 l 514 661 l 514 701 l 708 718 l 724 701 l 718 493 l 718 56 z "},"ú":{"ha":889,"x_min":47,"x_max":828,"o":"m 396 840 l 371 861 q 441 967 406 914 q 511 1071 477 1021 q 547 1114 531 1101 q 578 1126 562 1126 q 610 1115 595 1126 q 624 1080 624 1103 q 613 1050 624 1067 q 575 1008 603 1034 q 488 928 533 971 q 396 840 444 885 m 718 56 l 828 40 l 828 0 l 636 -11 l 628 129 q 503 20 572 60 q 357 -20 434 -20 q 210 41 261 -20 q 160 256 159 102 l 164 644 l 47 661 l 47 701 l 244 718 l 258 701 l 252 493 l 252 264 q 288 104 252 149 q 393 58 323 58 q 627 179 516 58 l 629 644 l 514 661 l 514 701 l 708 718 l 724 701 l 718 493 l 718 56 z "},"û":{"ha":889,"x_min":47,"x_max":828,"o":"m 433 1000 l 253 827 l 228 848 l 412 1100 l 452 1100 l 636 848 l 612 827 l 433 1000 m 718 56 l 828 40 l 828 0 l 636 -11 l 628 129 q 503 20 572 60 q 357 -20 434 -20 q 210 41 261 -20 q 160 256 159 102 l 164 644 l 47 661 l 47 701 l 244 718 l 258 701 l 252 493 l 252 264 q 288 104 252 149 q 393 58 323 58 q 627 179 516 58 l 629 644 l 514 661 l 514 701 l 708 718 l 724 701 l 718 493 l 718 56 z "},"ü":{"ha":889,"x_min":47,"x_max":828,"o":"m 593 925 q 544 944 565 925 q 522 994 522 962 q 544 1042 522 1023 q 593 1061 565 1061 q 643 1042 623 1061 q 664 994 664 1023 q 643 944 664 962 q 593 925 623 925 m 293 925 q 243 944 264 925 q 222 994 222 962 q 243 1042 222 1023 q 293 1061 264 1061 q 343 1042 321 1061 q 364 994 364 1023 q 343 944 364 962 q 293 925 321 925 m 718 56 l 828 40 l 828 0 l 636 -11 l 628 129 q 503 20 572 60 q 357 -20 434 -20 q 210 41 261 -20 q 160 256 159 102 l 164 644 l 47 661 l 47 701 l 244 718 l 258 701 l 252 493 l 252 264 q 288 104 252 149 q 393 58 323 58 q 627 179 516 58 l 629 644 l 514 661 l 514 701 l 708 718 l 724 701 l 718 493 l 718 56 z "},"ý":{"ha":757,"x_min":-12,"x_max":758,"o":"m 395 840 l 370 861 q 439 967 404 914 q 509 1071 475 1021 q 545 1114 529 1101 q 576 1126 561 1126 q 608 1115 594 1126 q 623 1080 623 1103 q 612 1050 623 1067 q 574 1008 602 1034 q 487 928 532 971 q 395 840 442 885 m 758 710 l 758 668 l 668 656 l 406 -45 q 267 -299 339 -220 q 113 -378 194 -378 q 29 -357 66 -378 q -12 -300 -8 -336 q 18 -263 -5 -275 q 68 -252 41 -252 q 117 -263 94 -252 q 165 -297 139 -274 l 178 -310 q 273 -216 232 -277 q 345 -77 314 -155 l 361 -31 l 89 657 l -5 668 l -5 710 l 326 710 l 326 668 l 195 654 l 404 90 l 608 654 l 473 668 l 473 710 l 758 710 z "},"þ":{"ha":848,"x_min":35,"x_max":777,"o":"m 257 571 l 257 134 q 355 64 306 85 q 456 43 404 43 q 566 75 515 43 q 647 177 616 108 q 677 355 677 245 q 616 588 677 509 q 460 667 555 667 q 367 648 417 667 q 257 571 317 629 m 254 890 l 254 615 q 368 702 307 675 q 488 729 428 729 q 636 684 571 729 q 739 557 701 640 q 777 364 777 475 q 738 161 777 248 q 629 28 699 75 q 471 -20 560 -20 q 362 4 418 -20 q 254 90 307 28 l 254 -47 q 255 -176 254 -108 q 257 -306 256 -244 l 400 -322 l 400 -364 l 35 -364 l 35 -322 l 163 -306 q 164 -176 163 -244 q 165 -47 165 -108 l 165 1019 l 36 1026 l 36 1068 l 237 1116 l 258 1104 l 254 890 z "},"ÿ":{"ha":757,"x_min":-12,"x_max":758,"o":"m 558 925 q 509 944 530 925 q 488 994 488 962 q 509 1042 488 1023 q 558 1061 530 1061 q 608 1042 587 1061 q 629 994 629 1023 q 608 944 629 962 q 558 925 587 925 m 258 925 q 208 944 229 925 q 187 994 187 962 q 208 1042 187 1023 q 258 1061 229 1061 q 308 1042 286 1061 q 329 994 329 1023 q 308 944 329 962 q 258 925 286 925 m 758 710 l 758 668 l 668 656 l 406 -45 q 267 -299 339 -220 q 113 -378 194 -378 q 29 -357 66 -378 q -12 -300 -8 -336 q 18 -263 -5 -275 q 68 -252 41 -252 q 117 -263 94 -252 q 165 -297 139 -274 l 178 -310 q 273 -216 232 -277 q 345 -77 314 -155 l 361 -31 l 89 657 l -5 668 l -5 710 l 326 710 l 326 668 l 195 654 l 404 90 l 608 654 l 473 668 l 473 710 l 758 710 z "},"Ā":{"ha":989,"x_min":12,"x_max":979,"o":"m 711 1213 l 711 1146 l 265 1146 l 265 1213 l 711 1213 m 302 396 l 629 396 l 464 892 l 302 396 m 848 57 l 979 45 l 979 0 l 586 0 l 586 45 l 742 58 l 646 347 l 286 347 l 193 60 l 336 45 l 336 0 l 12 0 l 12 45 l 135 58 l 456 1018 l 522 1018 l 848 57 z "}}}
